<svg width="96" height="48" viewBox="0 0 96 48" fill="none" xmlns="http://www.w3.org/2000/svg">
<path d="M70.7939 0.169434C62.6641 0.169434 55.1752 4.74323 47.9375 12.7348C40.8255 4.61758 33.2109 0.169434 24.7041 0.169434C10.6183 0.169434 0.339844 10.2217 0.339844 23.7547C0.339844 37.2876 10.6183 47.2142 24.7041 47.2142C33.3617 47.2142 40.0716 43.1556 47.5605 35.0635C54.7982 43.1807 62.1615 47.2393 70.7939 47.2393C84.8797 47.2142 95.1582 37.3253 95.1582 23.7547C95.1582 10.184 84.8797 0.169434 70.7939 0.169434ZM24.8046 33.0153C18.8361 33.0153 15.2801 29.0824 15.2801 23.8803C15.2801 18.6782 18.8361 14.6322 24.8046 14.6322C29.8308 14.6322 33.9397 18.6782 38.3878 24.1316C34.191 29.208 29.7554 33.0153 24.8046 33.0153ZM70.3667 33.0153C65.4159 33.0153 61.2317 29.0824 56.7835 23.8803C61.3573 18.4269 65.2903 14.6322 70.3667 14.6322C76.3353 14.6322 79.8536 18.7285 79.8536 23.8803C79.8536 29.0321 76.3353 33.0153 70.3667 33.0153Z" fill="white"/>
<path d="M58.1657 43.8597L67.64 32.5508C63.8704 31.4199 60.3898 28.0273 56.7835 23.8179L47.5605 35.0639C50.58 38.5671 54.1649 41.5401 58.1657 43.8597Z" fill="#E8E9EE"/>
<path d="M47.9374 12.7219C44.9381 9.16842 41.3758 6.12885 37.3951 3.7251L27.9082 15.1596C31.5145 16.4161 34.7061 19.658 38.0987 23.792L38.4757 24.0559L47.9374 12.7219Z" fill="#E8E9EE"/>
</svg>
