<svg width="58" height="66" viewBox="0 0 58 66" fill="none" xmlns="http://www.w3.org/2000/svg">
<path d="M57.7377 49.2717C57.282 49.7281 56.6836 49.9643 56.1382 50.2764C47.356 55.3061 38.5729 60.3334 29.7887 65.3583C29.2668 65.6572 28.9067 65.6499 28.3922 65.3495C19.2875 60.1234 10.177 54.91 1.06064 49.7092C0.85924 49.594 0.675484 49.4481 0.484375 49.3154C2.19995 48.3385 3.91258 47.3571 5.62962 46.386C13.47 41.9541 21.3059 37.5242 29.1375 33.0962L57.7377 49.2717Z" fill="#B5B7BA"/>
<path d="M29.1374 33.0965C21.3019 37.5264 13.466 41.9563 5.62953 46.3863C3.91249 47.3574 2.19986 48.3388 0.48429 49.3157C0.27995 49.0956 0.37992 48.8243 0.37992 48.5779C0.37698 38.2599 0.370609 27.9399 0.360809 17.618C0.360809 17.0201 0.557798 16.6993 1.06791 16.4077C8.57506 12.1382 16.0758 7.85794 23.5702 3.56702C25.1873 2.644 26.7956 1.71806 28.4127 0.79649C28.6346 0.671088 28.8404 0.494645 29.1183 0.496103C29.1183 1.64223 29.1212 2.78835 29.1271 3.93448C29.1389 6.55336 29.1516 9.17224 29.1653 11.7911C23.2027 15.2868 17.2362 18.7782 11.2658 22.2652C10.5425 22.688 9.74573 23.0015 9.13271 23.6009C9.10036 23.6606 9.03862 23.7204 9.03862 23.7802C9.03127 26.6601 9.03862 29.5385 9.02539 32.417C9.02539 32.8005 9.16211 32.8748 9.48699 32.6882C10.4661 32.1268 11.4584 31.5858 12.4271 31.0069C14.0795 30.0183 15.8083 29.1492 17.3901 28.0585C17.5465 28.0113 17.6989 27.9518 17.8458 27.8806C21.0403 26.0302 24.223 24.1623 27.4307 22.3395C27.979 22.0275 28.4509 21.52 29.1536 21.5098C29.1487 25.3711 29.1433 29.2333 29.1374 33.0965Z" fill="white"/>
<path d="M29.1517 21.5068C28.449 21.517 27.9756 22.0245 27.4288 22.3365C24.2211 24.1621 21.0384 26.0301 17.8439 27.8776C17.697 27.9487 17.5446 28.0082 17.3882 28.0555C16.5003 27.5694 15.6119 27.0834 14.723 26.5973C12.8609 25.5941 10.9988 24.5918 9.13672 23.5905C9.74974 22.9912 10.5465 22.6777 11.2698 22.2549C17.2304 18.7552 23.1969 15.2668 29.1693 11.7896L57.7445 28.0555C57.4152 28.4404 56.9404 28.611 56.52 28.856C54.1267 30.25 51.7231 31.6265 49.324 33.0147C49.1258 32.9495 48.9323 32.871 48.7448 32.7799C45.1049 30.6792 41.4665 28.5751 37.8295 26.4675C34.9394 24.811 32.0468 23.1575 29.1517 21.5068Z" fill="#B5B7BA"/>
<path d="M29.1534 21.5068C32.0445 23.1594 34.9356 24.8164 37.8268 26.4777C41.4686 28.5775 45.107 30.6817 48.742 32.7902C48.9296 32.8813 49.1231 32.9597 49.3212 33.0249C50.8927 34.0952 52.5877 34.9643 54.221 35.9325C55.2912 36.5654 56.3692 37.189 57.4551 37.8034C57.7242 37.9492 57.877 38.1242 57.8756 38.4566C57.8668 41.9339 57.8668 45.4121 57.8756 48.8913C57.8756 49.0298 57.8756 49.1742 57.7506 49.2719L29.1387 33.0964C29.1436 29.2342 29.1485 25.371 29.1534 21.5068Z" fill="white"/>
<path d="M57.7414 28.0658L29.1662 11.7999C29.1544 9.18101 29.1417 6.56213 29.128 3.94325C29.128 2.79713 29.125 1.65101 29.1191 0.504883C30.0791 0.776103 30.8568 1.39145 31.7006 1.87265C40.2417 6.74197 48.7779 11.62 57.3092 16.5069C57.6664 16.711 57.8781 16.9079 57.8752 17.3628C57.856 20.7545 57.8649 24.1477 57.8634 27.5394C57.8634 27.7217 57.9031 27.9185 57.7414 28.0658Z" fill="white"/>
<path d="M9.13469 23.5962C10.9968 24.5984 12.8589 25.6007 14.721 26.6029C15.6118 27.089 16.5002 27.5751 17.3862 28.0611C15.7985 29.1518 14.0756 30.0209 12.4232 31.0095C11.4559 31.5928 10.4636 32.1294 9.4831 32.6908C9.15821 32.8775 9.02003 32.8031 9.0215 32.4196C9.02885 29.5412 9.0215 26.6627 9.03473 23.7828C9.04061 23.7201 9.10235 23.6604 9.13469 23.5962Z" fill="#B5B7BA"/>
</svg>
