<svg width="56" height="57" viewBox="0 0 56 57" fill="none" xmlns="http://www.w3.org/2000/svg">
<path fill-rule="evenodd" clip-rule="evenodd" d="M53.3275 5.19043H33.157V0.4375L0.00195312 5.55481V50.4099L33.157 56.1206V49.0759H53.3275C53.9384 49.1068 54.5367 48.8946 54.9916 48.4856C55.4464 48.0767 55.7208 47.5043 55.7548 46.8935V7.37076C55.7203 6.76039 55.4457 6.18847 54.9909 5.77994C54.5361 5.3714 53.9381 5.15947 53.3275 5.19043ZM53.6461 47.2559H33.0893L33.0554 43.4946H38.0075V39.114H33.0176L32.9937 36.5255H38.0075V32.1449H32.9558L32.932 29.5564H38.0075V25.1758H32.916V22.5873H38.0075V18.2067H32.916V15.6182H38.0075V11.2376H32.916V7.25527H53.6461V47.2559Z" fill="white"/>
<path d="M49.4028 11.2324H40.7949V15.613H49.4028V11.2324Z" fill="white"/>
<path d="M49.4028 18.2017H40.7949V22.5822H49.4028V18.2017Z" fill="white"/>
<path d="M49.4028 25.1738H40.7949V29.5544H49.4028V25.1738Z" fill="white"/>
<path d="M49.4028 32.1431H40.7949V36.5236H49.4028V32.1431Z" fill="white"/>
<path d="M49.4028 39.1152H40.7949V43.4958H49.4028V39.1152Z" fill="white"/>
<path fill-rule="evenodd" clip-rule="evenodd" d="M8.65544 17.6719L12.9285 17.427L15.6146 24.8123L18.7885 17.1224L23.0616 16.8774L17.8726 27.363L23.0616 37.8744L18.5436 37.5697L15.4931 29.5572L12.4407 37.2651L8.28906 36.8987L13.1117 27.6138L8.65544 17.6719Z" fill="#E8E9EE"/>
</svg>
