<svg width="48" height="59" viewBox="0 0 48 59" fill="none" xmlns="http://www.w3.org/2000/svg">
<path d="M31.8196 41.7709C32.1179 41.9852 32.312 42.0924 32.4639 42.2478C37.0805 46.803 41.6949 51.361 46.3072 55.9219C46.4649 56.0693 46.6137 56.2257 46.753 56.3902C46.9082 56.5673 47.0074 56.7855 47.0382 57.0178C47.069 57.25 47.0302 57.4861 46.9265 57.6968C46.8352 57.9127 46.6845 58.0989 46.4914 58.2344C46.2983 58.3699 46.0707 58.4491 45.8343 58.4631C45.69 58.4731 45.5452 58.4756 45.4005 58.4706C40.4311 58.4706 35.4605 58.4642 30.49 58.4792C30.2032 58.4893 29.9175 58.4386 29.6522 58.3304C29.387 58.2223 29.1482 58.0592 28.9521 57.8522C23.9255 52.8676 18.8938 47.8894 13.8571 42.9177C12.9895 42.0603 12.9841 41.4472 13.8474 40.594C18.8819 35.6166 23.915 30.6384 28.9466 25.6595C29.1413 25.4511 29.3789 25.2864 29.6435 25.1764C29.908 25.0664 30.1933 25.0137 30.4802 25.0218C35.4504 25.0375 40.4206 25.0375 45.3908 25.0218C46.0773 25.0218 46.6564 25.1547 46.9449 25.8375C47.2334 26.5202 46.8799 27.0229 46.4027 27.4923C41.7586 32.0725 37.1177 36.6555 32.4801 41.2414C32.3229 41.3936 32.1396 41.5147 31.8196 41.7709ZM22.2267 47.4975L42.3627 27.6027H41.9733C38.378 27.6027 34.7837 27.6027 31.1895 27.5952C31.0219 27.5873 30.8545 27.616 30.6993 27.6791C30.5441 27.7423 30.4049 27.8384 30.2915 27.9607C25.7775 32.4365 21.2585 36.907 16.7345 41.3721C16.6119 41.4933 16.4991 41.6251 16.4015 41.7323L22.2267 47.4975ZM24.2136 49.5339C26.2981 51.5907 28.3772 53.6518 30.4748 55.6946C30.6158 55.8329 30.8902 55.8929 31.1017 55.894C34.7534 55.9058 38.404 55.9026 42.0557 55.9026H42.4299L30.1006 43.7151L24.2136 49.5339Z" fill="white"/>
<path d="M36.6207 0.593251H44.1563C44.9686 0.593251 45.4187 0.84191 45.6454 1.41747C45.9003 2.06591 45.6139 2.545 45.1606 2.99302C33.5818 14.4306 22.0052 25.8692 10.4307 37.3089C9.62275 38.1063 8.97526 38.0967 8.15317 37.2864C5.69844 34.8627 3.24517 32.4383 0.793334 30.0131C-0.0211721 29.2071 -0.0233413 28.5716 0.793334 27.7624C9.75904 18.8978 18.7266 10.0323 27.6959 1.16559C27.8807 0.971889 28.1054 0.819536 28.3547 0.718781C28.6041 0.618026 28.8724 0.571206 29.1416 0.581463C31.6339 0.603971 34.1273 0.593251 36.6207 0.593251ZM41.1965 3.16558H40.6716C37.0763 3.16558 33.4809 3.17093 29.8856 3.15807C29.718 3.15046 29.5507 3.17945 29.3956 3.24299C29.2406 3.30653 29.1017 3.40306 28.9887 3.5257C20.5761 11.8529 12.1588 20.1747 3.73684 28.4912C3.6132 28.6144 3.49823 28.7463 3.46136 28.7859L9.36354 34.623L41.1965 3.16558Z" fill="white"/>
</svg>
