<svg width="56" height="57" viewBox="0 0 56 57" fill="none" xmlns="http://www.w3.org/2000/svg">
<path d="M22.4435 56.323H33.0137L38.2989 47.1688L33.0137 38.0146H22.4435L17.1582 47.1688L22.4435 56.323Z" stroke="white" stroke-width="1.3151" stroke-linecap="round" stroke-linejoin="round"/>
<path d="M38.3008 47.1672H48.8712L54.1563 38.0131L48.8712 28.8589H38.3008L33.0156 38.0131L38.3008 47.1672Z" stroke="white" stroke-width="1.3151" stroke-linecap="round" stroke-linejoin="round"/>
<path d="M38.3008 28.552H48.8712L54.1563 19.3978L48.8712 10.2437H38.3008L33.0156 19.3978L38.3008 28.552Z" stroke="white" stroke-width="1.3151" stroke-linecap="round" stroke-linejoin="round"/>
<path d="M22.4433 19.3962H33.0136L38.2987 10.2421L33.0136 1.08789H22.4433L17.1582 10.2421L22.4433 19.3962Z" stroke="white" stroke-width="1.3151" stroke-linecap="round" stroke-linejoin="round"/>
<path d="M6.58982 28.552H17.1602L22.4454 19.3978L17.1602 10.2437H6.58982L1.30469 19.3978L6.58982 28.552Z" stroke="white" stroke-width="1.3151" stroke-linecap="round" stroke-linejoin="round"/>
<path d="M6.58982 47.1672H17.1602L22.4454 38.0131L17.1602 28.8589H6.58982L1.30469 38.0131L6.58982 47.1672Z" stroke="white" stroke-width="1.3151" stroke-linecap="round" stroke-linejoin="round"/>
<path d="M6.58984 28.8589L11.875 38.0131" stroke="white" stroke-width="1.3151" stroke-linecap="round" stroke-linejoin="round"/>
<path d="M22.4474 38.0146H11.877" stroke="white" stroke-width="1.3151" stroke-linecap="round" stroke-linejoin="round"/>
<path d="M6.58984 47.1688L11.875 38.0146" stroke="white" stroke-width="1.3151" stroke-linecap="round" stroke-linejoin="round"/>
<path d="M22.4473 38.0146L27.7324 47.1688" stroke="white" stroke-width="1.3151" stroke-linecap="round" stroke-linejoin="round"/>
<path d="M38.3007 47.1665H27.7305" stroke="white" stroke-width="1.3151" stroke-linecap="round" stroke-linejoin="round"/>
<path d="M22.4473 56.3207L27.7324 47.1665" stroke="white" stroke-width="1.3151" stroke-linecap="round" stroke-linejoin="round"/>
<path d="M38.5977 28.8589L43.8828 38.0131" stroke="white" stroke-width="1.3151" stroke-linecap="round" stroke-linejoin="round"/>
<path d="M54.4511 38.0146H43.8809" stroke="white" stroke-width="1.3151" stroke-linecap="round" stroke-linejoin="round"/>
<path d="M38.5977 47.1688L43.8828 38.0146" stroke="white" stroke-width="1.3151" stroke-linecap="round" stroke-linejoin="round"/>
<path d="M38.3008 10.2437L43.586 19.3978" stroke="white" stroke-width="1.3151" stroke-linecap="round" stroke-linejoin="round"/>
<path d="M54.1582 19.3955H43.5879" stroke="white" stroke-width="1.3151" stroke-linecap="round" stroke-linejoin="round"/>
<path d="M38.3008 28.5497L43.586 19.3955" stroke="white" stroke-width="1.3151" stroke-linecap="round" stroke-linejoin="round"/>
<path d="M22.4473 1.08789L27.7324 10.2421" stroke="white" stroke-width="1.3151" stroke-linecap="round" stroke-linejoin="round"/>
<path d="M38.3007 10.2437H27.7305" stroke="white" stroke-width="1.3151" stroke-linecap="round" stroke-linejoin="round"/>
<path d="M22.4473 19.3978L27.7324 10.2437" stroke="white" stroke-width="1.3151" stroke-linecap="round" stroke-linejoin="round"/>
<path d="M6.58984 10.2437L11.875 19.3978" stroke="white" stroke-width="1.3151" stroke-linecap="round" stroke-linejoin="round"/>
<path d="M22.4474 19.3955H11.877" stroke="white" stroke-width="1.3151" stroke-linecap="round" stroke-linejoin="round"/>
<path d="M6.58984 28.5497L11.875 19.3955" stroke="white" stroke-width="1.3151" stroke-linecap="round" stroke-linejoin="round"/>
</svg>
