<svg width="35" height="56" viewBox="0 0 35 56" fill="none" xmlns="http://www.w3.org/2000/svg">
<path d="M12.4413 5.13868C11.8324 4.52681 10.9829 4.14894 10.0386 4.14894C9.09779 4.14894 8.2549 4.52681 7.65318 5.13868H7.63586C7.02877 5.74757 6.6509 6.59762 6.6509 7.53841C6.6509 8.48278 7.02877 9.32567 7.63586 9.93097L7.65318 9.94471C8.2549 10.5536 9.09779 10.9279 10.0386 10.9279C10.9829 10.9279 11.8324 10.5536 12.4413 9.94471L12.4502 9.93097C13.0603 9.32567 13.4346 8.48278 13.4346 7.53841C13.4346 6.59762 13.0603 5.74757 12.4502 5.13868H12.4413ZM10.0386 51.5352C10.9829 51.5352 11.8324 51.1508 12.4413 50.5491L12.4502 50.5312C13.0603 49.9306 13.4346 49.0806 13.4346 48.1464C13.4346 47.202 13.0603 46.3555 12.4502 45.7436H12.4413C11.8324 45.1246 10.9829 44.7503 10.0386 44.7503C9.09779 44.7503 8.2549 45.1246 7.65318 45.7436H7.63586C7.02877 46.3555 6.6509 47.202 6.6509 48.1464C6.6509 49.0806 7.02877 49.9306 7.63586 50.5312L7.65318 50.5491C8.2549 51.1508 9.09779 51.5352 10.0386 51.5352ZM28.5057 41.2665C29.3456 41.0463 30.1062 40.5072 30.57 39.6924L30.6327 39.5736C31.0452 38.8005 31.1204 37.9087 30.9001 37.1183C30.678 36.2719 30.1324 35.5233 29.3194 35.0547L29.2722 35.0231C28.4801 34.5891 27.5775 34.4948 26.7483 34.7186C25.9054 34.9287 25.1485 35.4917 24.6871 36.2999C24.2197 37.1004 24.1218 38.0239 24.3456 38.874C24.5766 39.7097 25.1169 40.4654 25.9245 40.9376H25.9299C26.7394 41.4026 27.6563 41.4868 28.5057 41.2665ZM13.517 24.3687C12.6263 23.4805 11.399 22.9241 10.0386 22.9241C8.68351 22.9241 7.45917 23.4805 6.57031 24.3687C5.68564 25.254 5.14003 26.4784 5.14003 27.8352C5.14003 29.1957 5.68564 30.4236 6.57031 31.319C7.45917 32.2001 8.68351 32.7529 10.0386 32.7529C11.399 32.7529 12.6263 32.2001 13.517 31.319C14.4035 30.4236 14.9491 29.1957 14.9491 27.8352C14.9491 26.4784 14.4035 25.254 13.517 24.3687ZM11.5614 18.5915C13.5325 18.9162 15.306 19.8606 16.6593 21.2246H16.6701C16.885 21.4413 17.0951 21.6759 17.2891 21.9135L20.6732 19.9555C20.2183 18.5807 20.1974 17.1433 20.5628 15.7966C21.0457 13.9914 22.2157 12.3755 23.9695 11.3613L24.0274 11.3266C25.7622 10.3435 27.7345 10.1405 29.5152 10.6234C31.318 11.1058 32.9446 12.2812 33.9571 14.0338V14.0374C34.9647 15.7793 35.1695 17.7796 34.6883 19.5776C34.209 21.3816 33.0336 23.0083 31.2815 24.0154L30.8195 24.2888H30.7724C29.1516 25.0612 27.3692 25.1806 25.7323 24.7502C24.388 24.3932 23.1547 23.6446 22.1894 22.5779L18.8107 24.5299C19.1987 25.5579 19.4142 26.667 19.4142 27.8352C19.4142 28.9999 19.1987 30.1227 18.8107 31.1578L22.1894 33.1027C23.1547 32.0222 24.388 31.2874 25.7323 30.9304C27.5351 30.4373 29.5343 30.6474 31.2815 31.6652L31.3932 31.7178V31.7249C33.0813 32.7457 34.2144 34.327 34.6883 36.1107C35.1695 37.898 34.9647 39.8989 33.9571 41.6444L33.8962 41.7668L33.889 41.756C32.8766 43.4388 31.2816 44.579 29.5206 45.0613C27.7136 45.5371 25.715 45.3341 23.9695 44.3307V44.3163C22.2157 43.3021 21.0457 41.6826 20.5628 39.8816C20.1974 38.5385 20.2183 37.1004 20.6732 35.7263L17.2891 33.7743C17.0951 34.0124 16.885 34.2363 16.6701 34.453L16.6593 34.4631C15.306 35.8206 13.5325 36.765 11.5614 37.0795V40.9902C12.966 41.2839 14.225 41.9871 15.2117 42.9732L15.2165 42.984C16.5387 44.299 17.3572 46.1317 17.3572 48.1464C17.3572 50.1545 16.5387 51.9758 15.2165 53.298L15.2117 53.3189C13.8805 54.6411 12.0533 55.4596 10.0386 55.4596C8.03463 55.4596 6.20498 54.6411 4.87737 53.3189H4.87259V53.298C3.54856 51.9758 2.72836 50.1545 2.72836 48.1464C2.72836 46.1317 3.54856 44.299 4.87259 42.984V42.9732H4.87737C5.86233 41.9871 7.12309 41.2839 8.52412 40.9902V37.0795C6.55121 36.765 4.78305 35.8206 3.43156 34.4631L3.41724 34.453C1.72787 32.7565 0.671875 30.4236 0.671875 27.8352C0.671875 25.254 1.72787 22.9211 3.41724 21.2246H3.43156C4.78305 19.8606 6.55121 18.9162 8.52412 18.5915V14.6982C7.12309 14.3938 5.86233 13.6911 4.87737 12.7116H4.87259V12.7008C3.54856 11.372 2.72836 9.55311 2.72836 7.53841C2.72836 5.53386 3.54856 3.69765 4.87259 2.37541L4.87737 2.36884C6.20498 1.04302 8.03463 0.224609 10.0386 0.224609C12.0533 0.224609 13.8805 1.04302 15.2117 2.36884V2.37541H15.2165C16.5387 3.69765 17.3572 5.53386 17.3572 7.53841C17.3572 9.55311 16.5387 11.372 15.2165 12.7008L15.2117 12.7116C14.225 13.6911 12.966 14.3938 11.5614 14.6982V18.5915ZM30.57 15.996L30.5419 15.9542C30.0745 15.1668 29.3295 14.6421 28.5057 14.4146C27.6563 14.1908 26.7394 14.2857 25.9245 14.7507H25.9299C25.1169 15.2122 24.5731 15.9679 24.3456 16.8144C24.1218 17.6537 24.2197 18.5807 24.6871 19.3884L24.7026 19.4099C25.1712 20.2068 25.9162 20.7417 26.7483 20.9584C27.5847 21.193 28.5165 21.0951 29.3194 20.6265L29.363 20.6056C30.1533 20.1334 30.6798 19.3884 30.9001 18.57C31.124 17.7271 31.035 16.8036 30.57 15.996Z" fill="white"/>
</svg>
