<svg width="56" height="57" viewBox="0 0 56 57" fill="none" xmlns="http://www.w3.org/2000/svg">
<path fill-rule="evenodd" clip-rule="evenodd" d="M0.0371094 3.96463C0.0371094 2.25613 1.42215 0.871094 3.13064 0.871094H52.6272C53.8782 0.871094 55.0063 1.6248 55.4852 2.78079C55.9641 3.93674 55.6993 5.26733 54.8145 6.15208L32.2538 28.7129L54.8145 51.2738C55.6993 52.1586 55.9641 53.4892 55.4852 54.6449C55.0063 55.8011 53.8782 56.5547 52.6272 56.5547H3.13064C1.42215 56.5547 0.0371094 55.1696 0.0371094 53.4612V3.96463ZM6.22418 7.05816V50.3676H45.1586L25.6914 30.9003C24.4834 29.6923 24.4834 27.7335 25.6914 26.5254L45.1586 7.05816H6.22418Z" fill="white"/>
</svg>
