<svg width="35" height="64" viewBox="0 0 35 64" fill="none" xmlns="http://www.w3.org/2000/svg">
<path fill-rule="evenodd" clip-rule="evenodd" d="M25.294 58.4079L25.3558 58.5359L26.4377 61.0916C26.7373 61.7982 26.4076 62.6127 25.7028 62.9116C25.0411 63.1927 24.2847 62.9202 23.9468 62.3037L23.8849 62.1758L22.8019 59.6191C22.5035 58.9124 22.8332 58.0979 23.5379 57.7991C24.1986 57.519 24.9559 57.7906 25.294 58.4079ZM29.7325 56.6786C30.031 57.3841 29.7024 58.1997 28.9966 58.4985C28.2918 58.7973 27.4783 58.4683 27.1787 57.7617C26.8802 57.0561 27.2099 56.2406 27.9147 55.9417C28.6194 55.6429 29.4341 55.9719 29.7325 56.6786ZM16.418 13.1578C20.9094 18.1569 25.5495 24.6308 28.9051 32.5579L33.6583 43.7872L34.4406 45.6341C35.0818 47.1466 34.3749 48.8921 32.8652 49.534C31.3534 50.1748 29.6098 49.4682 28.9687 47.9557L28.4277 46.6773C28.1292 45.9707 27.3157 45.6416 26.6098 45.9405C25.9051 46.2404 25.5753 47.0549 25.8749 47.7615L27.251 51.0119L28.0398 52.8739C28.3383 53.5795 28.0085 54.394 27.3038 54.6928C26.599 54.9927 25.7844 54.6626 25.4859 53.9571L24.7133 52.1317C24.4999 51.6279 23.918 51.3927 23.4148 51.6063C22.9115 51.8189 22.6766 52.4014 22.89 52.9052L23.6626 54.7316C23.9611 55.4372 23.6325 56.2517 22.9266 56.5505C22.2219 56.8493 21.4083 56.5203 21.1087 55.8137L20.321 53.9527L18.9449 50.7012C18.6454 49.9957 17.8318 49.6656 17.1271 49.9655C16.4213 50.2643 16.0926 51.0799 16.3911 51.7854L16.932 53.0638C17.5732 54.5763 16.8674 56.3218 15.3566 56.9626C13.8447 57.6045 12.1012 56.8968 11.4611 55.3854L10.6788 53.5385L5.92447 42.3092C2.56887 34.3822 1.14755 26.5436 0.683108 19.8345L16.418 13.1578ZM19.4245 35.3207C18.849 33.9603 17.279 33.3239 15.9191 33.901C14.5592 34.4782 13.9245 36.0489 14.501 37.4104C15.0764 38.7729 16.6465 39.4072 18.0064 38.8301C19.3663 38.254 20.0021 36.6822 19.4245 35.3207ZM16.5592 28.5512C15.9827 27.1898 14.4126 26.5533 13.0527 27.1315C11.6939 27.7087 11.0581 29.2794 11.6346 30.6409C12.2111 32.0023 13.7801 32.6377 15.14 32.0617C16.4999 31.4845 17.1346 29.9127 16.5592 28.5512ZM13.6928 21.7817C13.1163 20.4203 11.5462 19.7838 10.1874 20.3609C8.82642 20.9381 8.19171 22.5088 8.76822 23.8714C9.34473 25.2328 10.9137 25.8682 12.2747 25.2922C13.6335 24.7139 14.2693 23.1421 13.6928 21.7817ZM1.8053 0.563477C1.8053 0.563477 7.83598 4.16087 14.6621 11.2681L14.9777 11.5986L0.567141 17.7132C0.14365 7.6167 1.8053 0.563477 1.8053 0.563477Z" fill="white"/>
</svg>
