<svg width="55" height="56" viewBox="0 0 55 56" fill="none" xmlns="http://www.w3.org/2000/svg">
<path d="M54.0419 12.7431C54.0618 12.8167 54.0722 12.8926 54.0722 12.9689V24.8244C54.0722 25.1341 53.9065 25.4202 53.6378 25.5743L43.6873 31.3032V42.6584C43.6873 42.9674 43.523 43.2527 43.2551 43.4083L22.4842 55.3654C22.4366 55.3924 22.3848 55.4097 22.3329 55.428C22.3135 55.4345 22.2951 55.4464 22.2746 55.4518C22.1294 55.49 21.9767 55.49 21.8316 55.4518C21.8078 55.4453 21.7862 55.4324 21.7635 55.4237C21.7159 55.4064 21.6662 55.3913 21.6209 55.3654L0.854292 43.4083C0.585777 43.254 0.419922 42.9681 0.419922 42.6584V7.09194C0.419922 7.01414 0.430727 6.9385 0.450176 6.86503C0.45666 6.84017 0.471787 6.81748 0.480431 6.79263C0.496639 6.74725 0.511766 6.70079 0.535538 6.65865C0.551746 6.63055 0.575517 6.60786 0.594967 6.58193C0.619819 6.54735 0.642509 6.5117 0.671684 6.48144C0.696536 6.45659 0.728951 6.43822 0.757045 6.41661C0.78838 6.39068 0.816474 6.36258 0.852131 6.34205H0.853211L11.237 0.363524C11.5046 0.209555 11.8339 0.209555 12.1014 0.363524L22.4853 6.34205H22.4874C22.522 6.36366 22.5512 6.39068 22.5825 6.41553C22.6106 6.43714 22.6419 6.45659 22.6668 6.48036C22.6971 6.5117 22.7187 6.54735 22.7446 6.58193C22.763 6.60786 22.7878 6.63055 22.8029 6.65865C22.8278 6.70187 22.8418 6.74725 22.8591 6.79263C22.8678 6.81748 22.8829 6.84017 22.8894 6.86611C22.9093 6.93974 22.9194 7.01566 22.9196 7.09194V29.3064L31.5725 24.3241V12.9678C31.5725 12.8922 31.5833 12.8155 31.6027 12.7431C31.6103 12.7171 31.6243 12.6944 31.633 12.6696C31.6503 12.6242 31.6654 12.5777 31.6892 12.5356C31.7054 12.5075 31.7291 12.4848 31.7475 12.4589C31.7734 12.4243 31.795 12.3887 31.8253 12.3584C31.8502 12.3335 31.8815 12.3152 31.9096 12.2936C31.942 12.2676 31.9701 12.2395 32.0047 12.219H32.0058L42.3907 6.24048C42.6582 6.08629 42.9876 6.08629 43.2551 6.24048L53.6389 12.219C53.6756 12.2406 53.7037 12.2676 53.7361 12.2925C53.7631 12.3141 53.7945 12.3335 53.8193 12.3573C53.8496 12.3887 53.8712 12.4243 53.8971 12.4589C53.9166 12.4848 53.9404 12.5075 53.9555 12.5356C53.9803 12.5777 53.9944 12.6242 54.0117 12.6696C54.0214 12.6944 54.0354 12.7171 54.0419 12.7431ZM52.3412 24.3241V14.4654L48.7074 16.5573L43.6873 19.4477V29.3064L52.3423 24.3241H52.3412ZM41.9574 42.1581V32.293L37.0194 35.1131L22.9186 43.1609V53.1189L41.9574 42.1581ZM2.15092 8.58846V42.1581L21.1876 53.1179V43.1619L11.2424 37.5335L11.2392 37.5313L11.2349 37.5292C11.2014 37.5097 11.1733 37.4816 11.1419 37.4579C11.1149 37.4362 11.0836 37.419 11.0598 37.3952L11.0577 37.3919C11.0296 37.3649 11.0101 37.3314 10.9864 37.3012C10.9647 37.272 10.9388 37.2472 10.9215 37.2169L10.9204 37.2137C10.901 37.1812 10.8891 37.1423 10.8751 37.1056C10.861 37.0732 10.8426 37.0429 10.834 37.0084V37.0073C10.8232 36.9662 10.821 36.923 10.8167 36.8809C10.8124 36.8484 10.8037 36.816 10.8037 36.7836V36.7814V13.5707L5.78472 10.6793L2.15092 8.58954V8.58846ZM11.6703 2.11181L3.01858 7.09194L11.6682 12.0721L20.3188 7.09086L11.6682 2.11181H11.6703ZM16.1696 33.192L21.1886 30.3026V8.58846L17.5548 10.6804L12.5347 13.5707V35.2849L16.1696 33.192ZM42.8229 7.98877L34.1722 12.9689L42.8229 17.949L51.4724 12.9678L42.8229 7.98877ZM41.9574 19.4477L36.9373 16.5573L33.3035 14.4654V24.3241L38.3225 27.2134L41.9574 29.3064V19.4477ZM22.052 41.6643L34.7406 34.4205L41.0832 30.8008L32.439 25.8239L22.4863 31.5539L13.4154 36.776L22.052 41.6643Z" fill="white"/>
</svg>
