<svg width="104" height="53" viewBox="0 0 104 53" fill="none" xmlns="http://www.w3.org/2000/svg">
<path d="M25.6999 2.15168C26.0715 1.52004 26.5545 0.913166 27.2481 0.615924C27.5329 0.566383 27.8178 0.591153 28.1026 0.591153H42.1226C41.7139 0.937936 41.3175 1.2971 41.0451 1.76774C40.3267 2.94432 39.8437 4.25714 39.3979 5.56997C38.1346 9.5332 37.2552 13.6079 36.4007 17.6826C36.0167 19.528 35.6452 21.3857 35.2984 23.2311C34.2333 29.2751 33.131 35.3066 31.7562 41.2886C31.0998 44.0505 30.431 46.8124 29.4155 49.4752C28.9448 50.5774 28.4866 51.754 27.5825 52.5714C27.3719 52.7572 27.1614 52.9925 26.8641 52.9554H14.479C13.6368 52.9306 12.807 53.0049 11.9648 52.9182C12.5222 52.4847 13.0176 51.9646 13.3396 51.3453C14.2685 49.5742 14.8506 47.6546 15.4079 45.7473C16.2749 42.6757 16.9684 39.5671 17.6248 36.4584C18.0335 34.4149 18.5166 32.3837 18.8138 30.3278C19.1482 28.0366 19.656 25.7701 20.0647 23.4912C20.7087 20.1349 21.3899 16.7785 22.1454 13.4469C22.7523 10.846 23.3715 8.25753 24.2013 5.71859C24.61 4.49246 25.0559 3.27872 25.6999 2.15168Z" fill="#B5B7BA" stroke="#B5B7BA" stroke-width="0.09375"/>
<path d="M42.125 0.591442C42.4841 0.591442 42.8433 0.579057 43.2025 0.591442C43.9951 1.01254 44.6639 1.68133 45.0355 2.51113C45.5309 3.4524 45.9396 4.44321 46.3111 5.45879C47.5497 9.28579 48.3918 13.2242 49.234 17.1503C49.9524 20.6677 50.6335 24.1975 51.2776 27.7396C51.3271 27.9254 51.2652 28.1855 51.5129 28.235C50.6212 32.8918 49.7418 37.561 48.6272 42.1806C48.0203 44.67 47.3763 47.1471 46.4598 49.5498C45.9644 50.7511 45.4566 52.0639 44.4038 52.9185C43.735 53.0671 43.252 52.5594 42.8433 52.1011C42.1374 51.197 41.7039 50.1319 41.2828 49.0667C39.8833 45.2521 39.0287 41.2765 38.1617 37.3133C37.5053 34.2294 36.9232 31.1207 36.3164 28.0245C36.0439 26.4515 35.6723 24.9034 35.4618 23.3305C35.4246 23.3057 35.3379 23.2562 35.3008 23.2314C35.6476 21.386 36.0191 19.5283 36.4031 17.6829C37.2576 13.6082 38.137 9.53349 39.4003 5.57025C39.8461 4.25743 40.3291 2.94461 41.0475 1.76803C41.3199 1.29739 41.7163 0.938225 42.125 0.591442Z" fill="white" stroke="white" stroke-width="0.09375"/>
<path d="M57.6192 2.7341C58.0651 1.87953 58.61 0.925873 59.5761 0.60386C64.4929 0.57909 69.4098 0.591475 74.3267 0.591475C73.8685 1.04972 73.3854 1.50797 73.0758 2.09007C72.1222 3.79922 71.5648 5.69414 70.9951 7.56429C69.5337 12.7165 68.5057 17.9802 67.5273 23.2438C66.6232 28.4332 65.6571 33.6226 64.5549 38.7871C63.9852 41.388 63.3907 43.9765 62.6352 46.5402C62.1522 48.1255 61.6444 49.7232 60.8517 51.197C60.4678 51.8658 60.0219 52.5965 59.2912 52.9433C54.5972 52.9805 49.8909 52.9433 45.1969 52.9557C44.9369 52.9557 44.6644 52.9557 44.4043 52.9185C45.457 52.064 45.9648 50.7512 46.4602 49.5498C47.3767 47.1471 48.0207 44.6701 48.6276 42.1807C49.7423 37.561 50.6216 32.8918 51.5133 28.235C52.5909 22.2283 53.7179 16.2215 55.1546 10.289C55.8234 7.7253 56.4674 5.12442 57.6192 2.7341Z" fill="#B5B7BA" stroke="#B5B7BA" stroke-width="0.09375"/>
<path d="M74.3248 0.591442C74.7211 0.591442 75.1298 0.579057 75.5262 0.591442C76.1702 0.92584 76.6284 1.49555 77.0372 2.07765C77.706 3.14277 78.127 4.34413 78.5605 5.52071C79.5885 8.67892 80.3564 11.9238 81.0623 15.1687C82.0036 19.5407 82.821 23.9374 83.626 28.3341C83.8242 29.3868 84.0224 30.4519 84.1462 31.5171C84.1957 31.5666 84.2948 31.6657 84.332 31.7028C83.8861 32.3221 83.7127 33.0652 83.465 33.7711C82.6848 36.2853 82.177 38.8862 81.7435 41.4747C81.4091 43.5058 80.9508 45.5246 80.3192 47.4815C79.8486 48.9305 79.2789 50.3672 78.3376 51.5809C77.8917 52.163 77.2849 52.6089 76.6161 52.9061C75.5881 53.0176 74.9812 52.0268 74.4858 51.2961C73.4579 49.5002 72.9005 47.4938 72.306 45.537C70.3492 38.2917 69.0735 30.873 67.6988 23.5039C67.6864 23.3924 67.6245 23.2933 67.5254 23.2438C68.5038 17.9801 69.5318 12.7165 70.9932 7.56426C71.5629 5.69411 72.1203 3.79918 73.0739 2.09004C73.3835 1.50794 73.8666 1.04969 74.3248 0.591442Z" fill="white" stroke="white" stroke-width="0.09375"/>
<path d="M0.375 28.7672C0.697013 28.7424 1.01903 28.6929 1.35342 28.6929H14.8532C15.4229 28.7672 16.0174 28.7176 16.5623 28.9653C17.355 29.2874 18.0609 29.8323 18.5811 30.5135C18.643 30.4763 18.7545 30.3772 18.8164 30.3277C18.5192 32.3836 18.0362 34.4148 17.6275 36.4583C16.971 39.567 16.2775 42.6757 15.4105 45.7472C14.8532 47.6545 14.2711 49.5742 13.3422 51.3452C13.0202 51.9645 12.5248 52.4847 11.9675 52.9181C11.7569 52.9553 11.5959 52.8067 11.4225 52.6952C10.8404 52.3237 10.506 51.6796 10.1468 51.0975C8.45009 47.2334 8.26431 42.9605 7.21158 38.923C6.67902 36.9042 6.02261 34.8978 5.05657 33.04C4.46208 31.9254 3.73136 30.8603 2.77771 30.0057C2.07176 29.436 1.25434 28.9777 0.375 28.7672Z" fill="white" stroke="white" stroke-width="0.09375"/>
<path d="M85.423 30.0555C86.2033 29.1761 87.3675 28.6188 88.544 28.6684H98.6998C100.112 28.6931 101.536 28.6188 102.948 28.7055C102.527 28.9904 102.019 29.1018 101.573 29.3371C100.025 30.0431 98.6998 31.2197 97.8576 32.6935C96.5077 35.0467 96.037 37.7466 95.6407 40.3971C95.2444 42.9979 95.2568 45.6855 94.4146 48.2121C93.8449 49.9831 92.9779 51.7666 91.4793 52.9308C86.8225 52.9803 82.1657 52.9432 77.5213 52.9555C77.2117 52.9555 76.9144 52.9679 76.6172 52.906C77.286 52.6088 77.8928 52.1629 78.3387 51.5808C79.28 50.3671 79.8497 48.9304 80.3203 47.4813C80.952 45.5245 81.4102 43.5057 81.7446 41.4746C82.1781 38.8861 82.6859 36.2852 83.4661 33.771C83.7138 33.0651 83.8872 32.322 84.3331 31.7027C84.7047 31.1578 84.9524 30.5261 85.423 30.0555Z" fill="#B5B7BA" stroke="#B5B7BA" stroke-width="0.09375"/>
</svg>
