<svg width="26" height="57" viewBox="0 0 26 57" fill="none" xmlns="http://www.w3.org/2000/svg">
<path d="M12.6778 41.8211C12.6778 41.8211 12.6778 22.5835 13.3166 22.5853C13.8105 22.5853 14.4529 47.4006 14.4529 47.4006C13.5691 47.2967 12.6778 43.3177 12.6778 41.8211ZM25.0586 22.8081C23.3522 15.3515 19.6146 8.94015 14.4603 3.99194L14.4473 3.9808C13.8197 3.02272 13.246 1.92353 12.7855 0.76493L12.741 0.638672C12.7428 0.675807 12.7428 0.720368 12.7428 0.76493C12.7428 1.81399 12.2731 2.75164 11.5322 3.38107L11.5267 3.38479C4.89068 9.01813 0.668455 17.3196 0.529199 26.6089V26.633C0.527343 26.7481 0.527344 26.8837 0.527344 27.0192C0.527344 36.2231 4.95566 44.3927 11.7977 49.5136L11.8702 49.5656L12.0317 49.6826C12.33 51.8908 12.585 54.1041 12.7967 56.3223H13.9126C14.2208 53.5539 14.6367 51.1308 15.1807 48.7542L15.0953 49.198C15.8306 48.6874 16.473 48.1582 17.0727 47.5844L17.0672 47.59C22.2679 42.7681 25.5135 35.8981 25.5135 28.2725C25.5135 28.1593 25.5135 28.0478 25.5116 27.9346V27.9513C25.506 26.1298 25.3408 24.3492 25.027 22.6206L25.0549 22.8044L25.0586 22.8081Z" fill="white"/>
</svg>
