<svg width="99" height="39" viewBox="0 0 99 39" fill="none" xmlns="http://www.w3.org/2000/svg">
<path d="M25.1246 1.94606C25.2599 1.88334 25.3985 1.82393 25.5371 1.77112C25.4018 1.82393 25.2632 1.88665 25.1246 1.94606ZM5.0463 38.9735H5.46219C6.69006 38.9735 7.03663 38.9735 8.44934 38.9735H9.56168C9.6475 38.9735 9.73332 38.9735 9.81914 38.9735C9.91486 38.9735 10.0172 38.9735 10.1195 38.9735C10.1195 38.9735 10.136 38.9735 10.1393 38.9735C10.1822 38.9735 10.2251 38.9735 10.2647 38.9735C10.2812 38.9735 10.2812 38.9735 10.2944 38.9735C10.3109 38.9735 10.3307 38.9933 10.3506 38.99C18.1997 38.5873 21.837 34.5274 23.6656 28.6785C25.0882 24.1401 26.2534 20.3211 27.2766 17.1128V17.1161C27.2898 17.0765 27.2997 17.0402 27.3129 17.0006C29.7786 13.5415 32.3267 10.5543 34.624 8.1316H34.6768C38.1921 18.882 39.5487 38.0625 49.8304 38.0625C50.2463 38.0625 50.6787 38.0724 51.0979 38.0295C50.6787 38.0724 50.2727 38.1285 49.8568 38.1285H58.0228C57.4451 38.1285 56.8972 38.0427 56.3691 37.9337C56.0357 37.8644 55.7123 37.7621 55.3954 37.6532C55.7123 37.7588 56.0357 37.8413 56.3724 37.9073C56.9005 38.0163 57.4484 38.0658 58.0228 38.0658C59.5378 38.0658 60.802 37.9502 61.9044 37.5905C60.802 37.9502 59.5378 38.1285 58.0228 38.1285L66.0105 38.1252C66.0798 38.1252 66.1491 38.1252 66.2151 38.1252C66.2151 38.1252 66.2184 38.1252 66.2217 38.1252L66.225 38.1087L69.2386 38.079C68.8524 38.079 68.4926 38.0097 68.1461 37.8941C68.1494 37.8875 68.156 37.8842 68.1593 37.8776C68.4992 37.98 68.8524 37.9998 69.232 37.9998C77.1636 37.9998 85.1612 23.7572 98.3938 0.0976562H93.1985L93.2018 0.308902H92.2347C87.3562 8.96998 83.9466 16.3702 81.0552 22.2851C83.9499 16.3636 87.3595 8.96998 92.2347 0.308902H85.0985C84.9632 0.308902 84.8279 0.308902 84.6925 0.308902C84.5638 0.308902 84.4351 0.308902 84.3097 0.308902H84.2932C84.0291 0.308902 83.7749 0.272596 83.5208 0.2891C83.5208 0.2924 83.5175 0.265994 83.5175 0.272596C75.8565 0.734696 72.272 4.62294 70.4698 10.3959C67.3143 20.4829 65.4032 27.0117 63.5647 31.1805C63.5647 31.1904 63.5581 31.1904 63.5581 31.1937V31.1838C62.7131 32.009 61.8351 32.7615 60.9769 33.4448C60.528 33.8013 60.0791 34.1379 59.6269 34.4548C60.0032 34.907 60.3894 35.3295 60.7954 35.7157C61.4093 36.3131 62.0662 36.8148 62.7824 37.201H62.7791C62.0628 36.8148 61.406 36.3131 60.7888 35.7157C60.3828 35.3295 59.9999 34.907 59.6203 34.4548C60.0725 34.1379 60.5181 33.798 60.967 33.4415C61.8252 32.7582 62.6834 32.0057 63.5449 31.1805C59.9735 20.4796 58.6928 1.02516 48.3418 1.02516C47.6123 1.02516 46.8763 1.09447 46.1435 1.2265C46.8763 1.09117 47.6123 1.02186 48.3418 1.02186L44.272 0.965746C44.9189 0.965746 45.5296 1.14728 46.1105 1.14728C45.5296 1.14728 44.9156 0.965746 44.272 0.965746C44.2159 0.965746 44.1631 0.952542 44.107 0.955843C44.1631 0.955843 44.2192 0.936037 44.2753 0.936037H27.9038C27.8113 0.936037 27.7189 0.922835 27.6232 0.922835C18.6915 0.922835 6.38309 17.6212 0.837891 38.9603C0.837891 38.9603 1.24058 38.9603 1.90402 38.9603C2.66979 38.9603 5.0397 38.9603 5.0397 38.9603L5.0463 38.9735ZM83.1577 1.01856C80.494 1.85694 78.5334 3.30925 77.0778 5.23357C78.5334 3.30925 80.4907 1.85694 83.1577 1.01856ZM70.6414 36.8841C70.615 36.8973 70.5919 36.9105 70.5655 36.9237C70.5292 36.9435 70.4896 36.96 70.4533 36.9798C70.45 36.9798 70.4467 36.9831 70.4467 36.9831C70.5127 36.9501 70.5754 36.9138 70.6414 36.8841ZM69.5555 37.366C69.572 37.3528 69.5885 37.3528 69.6083 37.3462C69.5918 37.3561 69.572 37.3594 69.5555 37.366ZM68.6016 37.6961C68.6643 37.6763 68.7204 37.6598 68.7798 37.6433C68.8095 37.6301 68.8392 37.6202 68.8689 37.6136C68.9052 37.6004 68.9382 37.5905 68.9679 37.5773C69.0042 37.5641 69.0406 37.5575 69.0703 37.5443C69.1 37.5311 69.1264 37.5245 69.1561 37.5113C69.2254 37.4849 69.2947 37.465 69.3673 37.4386C69.3772 37.4386 69.3871 37.4353 69.3937 37.4287C69.3871 37.432 69.3739 37.4353 69.3673 37.4386C69.298 37.465 69.232 37.4849 69.1627 37.5113C69.133 37.5245 69.1033 37.5311 69.0769 37.541C69.0472 37.5542 69.0108 37.5641 68.9745 37.574C68.9448 37.5872 68.9085 37.5938 68.8722 37.6103C68.8425 37.6235 68.8128 37.6268 68.7831 37.64C68.7204 37.6565 68.6643 37.673 68.6049 37.6928C68.6016 37.6928 68.595 37.6961 68.5917 37.6961C68.595 37.6961 68.5983 37.6928 68.6016 37.6928V37.6961ZM25.5371 1.79422V1.77112C25.5371 1.77112 25.5569 1.79422 25.5602 1.79422C25.3853 1.79422 25.2137 1.91635 25.042 1.98897C25.0684 1.97576 25.0981 1.95596 25.1246 1.94606C24.9859 2.00547 24.8473 2.07148 24.7087 2.1375C24.636 2.17381 24.5601 2.20681 24.4875 2.24642L25.5371 1.79422ZM27.1446 1.2265C27.1215 1.2397 27.105 1.28921 27.0852 1.28921C26.9399 1.32552 26.7947 1.36513 26.6495 1.40474C26.633 1.40474 26.6198 1.41794 26.6 1.42124C26.5604 1.43115 26.5208 1.44435 26.4778 1.45755C26.5208 1.44435 26.5604 1.42124 26.6 1.41464C26.6198 1.41464 26.6363 1.39814 26.6495 1.39814C26.7947 1.35853 26.9399 1.31892 27.0852 1.28261C27.105 1.28261 27.1215 1.2265 27.1446 1.2265C27.1842 1.2133 27.2238 1.15718 27.2667 1.15388C27.2238 1.15718 27.1842 1.2232 27.1446 1.2298V1.2265ZM27.336 1.2067C27.3162 1.2199 27.2931 1.2331 27.2733 1.2397C27.2931 1.2265 27.3129 1.2034 27.336 1.19679C27.3789 1.18359 27.4185 1.15059 27.4648 1.15059C27.4185 1.15059 27.3789 1.2001 27.336 1.2067ZM28.9303 1.15388C28.8511 1.14068 28.7751 1.14728 28.6992 1.14728C28.6959 1.14728 28.6926 1.14728 28.6926 1.14728C28.7685 1.14728 28.8445 1.13738 28.9237 1.14728C28.9336 1.14728 28.9402 1.14398 28.9501 1.14398C28.9435 1.14728 28.9402 1.15388 28.9303 1.15388ZM29.1349 1.05156C28.9435 1.05156 28.7553 1.09117 28.5606 1.10438C28.587 1.10438 28.6134 1.13738 28.6398 1.14398C28.5903 1.13738 28.5408 1.10768 28.4913 1.10438C28.5144 1.10107 28.5375 1.08787 28.5606 1.08787C28.5474 1.08787 28.5474 1.08127 28.5342 1.08127C28.5177 1.06807 28.4946 1.06146 28.4946 1.06146V1.07797C28.2833 1.09117 28.2965 1.09447 28.2041 1.10438L28.1909 1.08787C28.1645 1.08787 28.1447 1.10107 28.1216 1.10107C28.0853 1.11428 28.0424 1.11428 28.0028 1.11758C27.9797 1.11758 27.9566 1.11758 27.9335 1.13078C27.8906 1.14398 27.8509 1.15058 27.8113 1.15719C27.808 1.15719 27.8047 1.16049 27.8014 1.16049C27.8047 1.16049 27.808 1.16049 27.8113 1.16049C27.8542 1.16049 27.8906 1.14068 27.9335 1.13078C27.9566 1.13078 27.9797 1.11758 28.0028 1.11758C28.0424 1.11758 28.082 1.10107 28.1216 1.09447C28.1414 1.09447 28.1612 1.09447 28.1876 1.08127C28.2668 1.07137 28.3461 1.06477 28.4253 1.05817C28.4418 1.05817 28.455 1.06146 28.4715 1.06146C28.6959 1.04166 28.9138 1.03506 29.1349 1.03506V1.05156ZM29.6663 1.28261C29.5178 1.243 29.366 1.2133 29.2141 1.18689C29.2009 1.18689 29.1877 1.18029 29.1745 1.17699C29.1844 1.18029 29.1976 1.18359 29.2108 1.18359C29.3627 1.2133 29.5178 1.243 29.6663 1.28261C29.6696 1.28261 29.6729 1.28591 29.6762 1.28591C29.6729 1.28591 29.6729 1.28591 29.6696 1.28591L29.6663 1.28261ZM32.8977 3.86377C32.8977 3.86377 32.8977 3.86707 32.8944 3.86707C32.429 3.0815 31.9174 2.42136 31.3497 1.93946C31.3563 1.94276 31.3662 1.94936 31.3728 1.95266C31.9306 2.43786 32.4323 3.0881 32.8944 3.86707L32.8977 3.86377ZM41.912 1.24631C42.5061 1.13408 43.1035 1.06147 43.6911 1.03506C43.1002 1.06477 42.5061 1.13408 41.9087 1.24961L41.912 1.24631ZM43.7076 1.91635C44.3479 1.6787 44.985 1.49056 45.622 1.34863C44.9816 1.49056 44.3446 1.6787 43.7076 1.91635ZM53.2631 37.6004C53.6493 37.4981 54.0388 37.3759 54.425 37.2406C54.0355 37.3759 53.6493 37.4948 53.2631 37.6004ZM63.2709 36.9501C63.2478 36.9633 63.2247 36.9732 63.2016 36.9864C63.2247 36.9732 63.2511 36.96 63.2742 36.9468L63.2709 36.9501ZM65.2711 35.214L65.2744 35.1975C65.2744 35.1975 65.2744 35.1942 65.2777 35.1942C65.796 36.0754 66.3703 36.8016 67.0172 37.3033C66.3703 36.8115 65.7894 36.1019 65.2711 35.214ZM66.7433 38.0526C66.7169 38.0658 66.6937 38.0658 66.6673 38.0658C66.664 38.0658 66.664 38.0658 66.6607 38.0658C66.6871 38.0658 66.7136 38.0658 66.7367 38.0526C66.7862 38.0526 66.8357 38.0526 66.8885 38.0394C66.8918 38.0394 66.8951 38.0394 66.8951 38.0394C66.8423 38.0526 66.7928 38.0526 66.7433 38.0526ZM67.3671 37.9833C67.311 37.9932 67.2516 37.9965 67.1922 38.0097C67.1757 38.0097 67.1591 38.0229 67.1426 38.0229H67.1294C67.0766 38.0295 67.0205 38.0394 66.9677 38.0394C66.9644 38.0394 66.9611 38.0394 66.9611 38.0394C67.0139 38.0394 67.07 38.0262 67.1228 38.0229H67.136C67.1525 38.0229 67.1691 38.0097 67.1856 38.0097C67.245 37.9965 67.3044 37.9899 67.3605 37.9833C67.3671 37.9833 67.3704 37.9833 67.3737 37.9833C67.3704 37.9833 67.3704 37.9833 67.3671 37.9833Z" fill="white"/>
</svg>
