<svg width="54" height="57" viewBox="0 0 54 57" fill="none" xmlns="http://www.w3.org/2000/svg">
<mask id="mask0_510_350" style="mask-type:luminance" maskUnits="userSpaceOnUse" x="0" y="0" width="54" height="57">
<path d="M53.0631 0.787109H0.171875V56.4707H53.0631V0.787109Z" fill="white"/>
</mask>
<g mask="url(#mask0_510_350)">
<path d="M16.9262 45.6287C16.9262 47.4355 15.4479 49.0781 13.4768 49.0781C11.5057 49.0781 10.0273 47.5998 10.0273 45.6287V30.8454C10.0273 29.0386 11.5057 27.396 13.4768 27.396C15.4479 27.396 16.9262 28.8743 16.9262 30.8454V45.6287Z" fill="white"/>
</g>
<mask id="mask1_510_350" style="mask-type:luminance" maskUnits="userSpaceOnUse" x="0" y="0" width="54" height="57">
<path d="M53.0631 0.787109H0.171875V56.4707H53.0631V0.787109Z" fill="white"/>
</mask>
<g mask="url(#mask1_510_350)">
<path d="M26.7815 49.572C26.7815 51.3788 25.3031 53.0214 23.332 53.0214C21.3609 53.0214 20.0469 51.5431 20.0469 49.572V27.0686C20.0469 25.2617 21.5252 23.6191 23.4963 23.6191C25.4674 23.6191 26.9457 25.0975 26.9457 27.0686V49.572H26.7815Z" fill="white"/>
</g>
<mask id="mask2_510_350" style="mask-type:luminance" maskUnits="userSpaceOnUse" x="0" y="0" width="54" height="57">
<path d="M53.0631 0.787109H0.171875V56.4707H53.0631V0.787109Z" fill="white"/>
</mask>
<g mask="url(#mask2_510_350)">
<path d="M6.90666 42.3457C6.90666 44.1526 5.42834 45.7952 3.45724 45.7952C1.48614 45.7952 0.0078125 44.3168 0.0078125 42.3457V34.2971C0.0078125 32.4902 1.48614 30.8477 3.45724 30.8477C5.42834 30.8477 6.90666 32.4902 6.90666 34.2971V42.3457Z" fill="white"/>
</g>
<mask id="mask3_510_350" style="mask-type:luminance" maskUnits="userSpaceOnUse" x="0" y="0" width="54" height="57">
<path d="M53.0631 0.787109H0.171875V56.4707H53.0631V0.787109Z" fill="white"/>
</mask>
<g mask="url(#mask3_510_350)">
<path d="M36.6369 53.1843C36.6369 54.9911 35.1586 56.6337 33.1875 56.6337C31.3807 56.6337 29.9023 54.9911 29.9023 53.1843V23.2893C29.9023 21.4824 31.3807 19.8398 33.3518 19.8398C35.1586 19.8398 36.8012 21.3182 36.8012 23.2893V53.1843H36.6369Z" fill="white"/>
</g>
<mask id="mask4_510_350" style="mask-type:luminance" maskUnits="userSpaceOnUse" x="0" y="0" width="54" height="57">
<path d="M53.0631 0.787109H0.171875V56.4707H53.0631V0.787109Z" fill="white"/>
</mask>
<g mask="url(#mask4_510_350)">
<path d="M47.4783 51.7078C46.8213 51.7078 46.3285 51.5435 45.6714 51.3793L41.565 50.0652C40.9079 49.901 40.4152 49.0797 40.7437 48.4226C40.9079 47.7656 41.7292 47.2728 42.3863 47.6013L46.657 48.9154C47.4783 49.2439 48.4638 49.0797 49.2851 48.4226C50.1064 47.9299 50.4349 46.9443 50.4349 46.123V18.6919C50.4349 17.3778 49.6136 16.228 48.4638 15.8995L8.22053 3.74435C7.39924 3.41584 6.41369 3.58009 5.5924 4.07287C4.93536 4.7299 4.44259 5.55119 4.44259 6.53675V25.4265C4.44259 26.2478 3.78555 26.7405 3.12852 26.7405C2.30723 26.7405 1.81445 26.0835 1.81445 25.4265V6.53675C1.81445 4.7299 2.63574 3.08732 4.11407 2.10177C5.5924 0.95196 7.39924 0.787702 9.04182 1.28048L49.1209 13.4356C51.4205 14.0926 53.0631 16.3922 53.0631 18.8561V46.2873C53.0631 48.0941 52.2418 49.7367 50.7635 50.8865C49.7779 51.215 48.6281 51.7078 47.4783 51.7078Z" fill="white"/>
</g>
</svg>
