<svg width="65" height="56" viewBox="0 0 65 56" fill="none" xmlns="http://www.w3.org/2000/svg">
  <path d="M64.945 34.1319C64.9174 34.7466 64.1048 35.4349 62.4334 36.3074C58.9918 38.0984 41.1712 45.4398 37.3797 47.4058C36.0237 48.3704 34.3317 48.9482 32.5084 48.9482C31.0328 48.9482 29.6469 48.5707 28.4383 47.9077L28.482 47.9307C25.4801 46.4988 6.5223 38.8374 3.10598 37.2052C1.40012 36.3995 0.529927 35.7019 0.5 35.0574V41.5723C0.5 42.2215 1.39782 42.9144 3.10598 43.7202C6.5223 45.3523 25.487 53.0137 28.482 54.4456C29.6423 55.0833 31.0259 55.4586 32.4969 55.4586C34.3271 55.4586 36.0214 54.8784 37.405 53.8908L37.3797 53.9093C41.1712 51.9317 58.9918 44.6065 62.4334 42.8108C64.183 41.8992 64.9565 41.1994 64.9565 40.5502C64.9565 39.901 64.9565 34.125 64.9565 34.125L64.945 34.1319Z" fill="white" />
  <path d="M64.9408 23.5098C64.9108 24.1244 64.1005 24.8105 62.4315 25.6829C58.9898 27.474 41.1693 34.8154 37.3777 36.7814C36.0195 37.7506 34.3251 38.3284 32.495 38.3284C31.0239 38.3284 29.6403 37.9531 28.4363 37.2947L28.4801 37.3178C25.4781 35.8744 6.52034 28.213 3.10403 26.5808C1.39817 25.775 0.527974 25.0775 0.498047 24.4329V30.9479C0.498047 31.597 1.39587 32.29 3.10403 33.0957C6.52034 34.7279 25.4828 42.3893 28.4801 43.8212C29.645 44.4612 31.0308 44.8387 32.5065 44.8387C34.332 44.8387 36.0218 44.2609 37.4053 43.2802L37.38 43.2986C41.1716 41.3211 58.9921 33.9912 62.4338 32.2002C64.1834 31.2863 64.9569 30.5887 64.9569 29.9349C64.9569 29.2811 64.9569 23.5098 64.9569 23.5098H64.9408Z" fill="white" />
  <path d="M64.9425 12.4925C64.9747 11.8364 64.1183 11.2632 62.394 10.6278C59.0537 9.40078 41.3252 2.34945 37.9365 1.10631C36.721 0.549206 35.3029 0.224609 33.8065 0.224609C32.1168 0.224609 30.5237 0.638988 29.1218 1.37106L29.177 1.34343C25.1921 2.77534 6.33096 10.172 2.9768 11.4842C1.29857 12.1449 0.476721 12.7549 0.506648 13.4041V19.9191C0.506648 20.5683 1.40447 21.2612 3.11263 22.0669C6.52894 23.6991 25.4913 31.3628 28.4887 32.7947C29.6489 33.4324 31.0325 33.8054 32.5035 33.8054C34.3337 33.8054 36.0281 33.2252 37.4139 32.2399L37.3886 32.2583C41.1802 30.2808 59.0007 22.9509 62.4424 21.1599C64.192 20.246 64.9655 19.5484 64.9655 18.8946C64.9655 18.2409 64.9655 12.4695 64.9655 12.4695H64.9448L64.9425 12.4925ZM23.5806 18.6713L38.5166 16.3785L34.0045 22.9947L23.5806 18.6713ZM56.6181 12.7135L46.8272 16.581L37.9987 13.0749L47.7734 9.20971L56.6088 12.702L56.6181 12.7135ZM30.6849 6.30216L29.2392 3.63863L33.7467 5.39973L37.9964 4.00926L36.8476 6.76258L41.1779 8.37405L35.593 8.95418L34.3429 11.9722L32.3194 8.61807L25.8735 8.03794L30.6872 6.30216H30.6849ZM19.5726 10.0592C23.9835 10.0592 27.554 11.445 27.554 13.1532C27.554 14.8614 23.9651 16.2472 19.5726 16.2472C15.1802 16.2472 11.5751 14.8591 11.5751 13.1532C11.5751 11.4474 15.1503 10.0592 19.5726 10.0592Z" fill="white" />
</svg>