<svg width="57" height="57" viewBox="0 0 57 57" fill="none" xmlns="http://www.w3.org/2000/svg">
<path d="M47.4122 38.0329C43.3682 38.0329 39.9463 40.5216 38.7019 44.2545H25.6365C25.6365 42.077 25.0144 40.2105 24.0811 38.6551L46.1679 15.9461C47.1012 15.9461 48.0344 16.2572 48.9676 16.2572C53.3228 16.2572 56.7447 12.8353 56.7447 8.48016C56.7447 4.12502 53.3228 0.703125 48.9676 0.703125C44.6125 0.703125 41.1906 4.12502 41.1906 8.48016C41.1906 9.41341 41.5017 10.6577 41.8128 11.591L20.0371 33.9888C18.1706 32.4334 15.6819 31.8113 13.1933 31.8113V18.7459C16.9262 17.5015 19.4149 14.0796 19.4149 10.0356C19.4149 4.74718 15.3708 0.703125 10.0824 0.703125C4.79406 0.703125 0.75 4.74718 0.75 10.0356C0.75 14.0796 3.23865 17.5015 6.97163 18.7459V33.3667C3.23865 35.5443 0.75 39.5883 0.75 43.9435C0.75 50.7873 6.34947 56.3867 13.1933 56.3867C17.8595 56.3867 21.9035 53.8981 23.77 50.1651H38.3909C39.6352 53.587 43.0571 56.3867 47.1011 56.3867C52.0784 56.3867 56.4336 52.3427 56.4336 47.0543C56.7447 42.077 52.3895 38.0329 47.4122 38.0329Z" fill="white"/>
</svg>
