<svg width="84" height="57" viewBox="0 0 84 57" fill="none" xmlns="http://www.w3.org/2000/svg">
<path d="M40.6932 1.70482L43.2449 1.08424C45.9751 0.603204 48.765 0.577353 51.5035 1.00771L54.2702 1.67977L57.0272 2.76508L58.2224 3.35226L59.7884 4.29147C62.6922 6.23211 65.1774 8.74527 67.0945 11.6799C67.407 12.2124 67.7195 12.7453 68.0319 13.2787C68.2268 13.6729 68.4202 14.0671 68.6123 14.4614C69.6914 16.937 70.403 19.5598 70.7242 22.245L70.7986 22.8113C70.7269 23.116 70.8593 23.2593 71.1474 23.3567C71.9566 23.635 72.7561 23.9356 73.5598 24.2291C75.6224 25.2834 77.4848 26.6965 79.0614 28.4034L81.0106 31.1626L81.8171 32.7572C81.9687 33.1509 82.1217 33.5461 82.2734 33.9413C82.5114 34.8763 82.7503 35.8113 82.9902 36.7464C83.0747 37.6656 83.1593 38.5854 83.2438 39.5056L83.0467 42.2745L82.3437 45.0573C81.5978 47.0728 80.5264 48.9497 79.1731 50.6119L79.0725 50.7371C77.4607 52.4762 75.5446 53.8998 73.4205 54.9364C71.7059 55.6471 69.9039 56.1208 68.0636 56.3446L65.3066 56.3877H21.1941L18.4509 56.3793L15.6842 56.2054C13.7724 55.8732 11.9163 55.2718 10.1702 54.4188C9.52778 54.0181 8.87436 53.6355 8.24024 53.2139C6.14628 51.8085 4.51825 49.944 3.12595 47.8569L1.8977 45.4748C1.90031 45.4007 1.88824 45.3269 1.8622 45.2576C1.83616 45.1883 1.79667 45.1249 1.74606 45.0713L0.910676 42.2884L0.513672 39.5056C0.549513 38.578 0.585811 37.6503 0.622571 36.7227L1.13124 33.9621C1.68821 31.9988 2.50375 30.1199 3.55605 28.3756C4.66649 26.7733 5.96225 25.3103 7.41589 24.0177L8.98602 22.8224C9.86827 22.5038 10.3645 21.9528 10.1826 20.9287C10.1316 20.6435 10.206 20.336 10.2212 20.0382L10.2336 19.9978L10.1936 19.9784L10.8636 17.254C11.2829 16.3019 11.7579 15.3759 12.2862 14.4808L12.9175 13.6237L14.864 11.6897L15.6773 11.1039C16.5579 10.5663 17.4799 10.101 18.4344 9.71245C21.1174 8.80046 24.0224 8.80046 26.7054 9.71245C27.2458 9.92951 27.8758 10.429 28.3018 10.2899C28.7898 10.1299 29.0958 9.40355 29.4804 8.92351C31.1204 7.16397 32.9643 5.61016 34.9724 4.29564L36.6459 3.34669L37.7487 2.81795L40.6932 1.70482ZM42.4384 53.5701C50.3419 53.5701 58.2454 53.5701 66.1489 53.5701C67.0888 53.5883 68.0285 53.5222 68.9569 53.3725C77.9173 51.7487 82.9833 42.2188 79.2006 33.8606C76.8903 28.7541 72.876 25.8752 67.2158 25.5593C65.7244 25.4946 64.2303 25.5462 62.7467 25.7138C61.8713 25.8028 61.2303 25.2296 61.1766 24.4267C61.1269 23.6656 61.6797 23.045 62.5151 22.949C64.0908 22.7682 65.6719 22.6234 67.2558 22.7835C67.8624 22.8447 68.003 22.661 67.9216 22.0752C67.617 19.8837 67.0945 17.7507 66.1199 15.7637C62.5358 8.43512 56.7846 4.03962 48.6321 3.54706C41.4638 3.11293 35.5527 6.04188 30.9072 11.57C30.5763 11.9638 30.7693 12.1363 31.045 12.4048C33.5953 14.8593 34.9255 17.8662 34.9848 21.4282C35 22.3382 34.4499 22.9393 33.6449 22.9588C32.8398 22.9783 32.2857 22.3855 32.2305 21.4867C32.2165 21.0012 32.1733 20.517 32.1009 20.0368C31.3455 15.9558 28.9828 13.2634 25.025 12.2073C21.1169 11.1651 17.7754 12.3464 15.148 15.434C13.3973 17.4877 12.8555 19.9714 12.9424 22.6193C12.9685 23.4346 12.6667 23.9759 11.9443 24.3474C10.4202 25.1172 9.04667 26.159 7.8901 27.4225C4.21498 31.4576 2.51389 36.1536 3.64427 41.5983C5.13169 48.7404 11.1393 53.5506 18.3944 53.5715C26.4049 53.5882 34.4224 53.5701 42.4384 53.5701Z" fill="white"/>
<path d="M34.6632 27.6518C35.0767 27.6198 35.3842 27.8647 35.7095 28.0832C36.1106 28.3517 36.498 28.6397 36.9143 28.8874C37.8352 29.4175 38.8746 28.95 39.1075 27.9051C39.2275 27.3638 39.2964 26.8114 39.408 26.2674C39.5666 25.4909 40.0642 25.061 40.8541 25.0429C41.6812 25.0248 42.5083 25.0234 43.3354 25.0429C44.1625 25.0624 44.634 25.509 44.7746 26.3411C44.8559 26.8197 44.8987 27.3151 45.0186 27.777C45.2626 28.7343 46.2027 29.1532 47.0698 28.6898C47.5137 28.4519 47.9162 28.1332 48.3491 27.8744C48.968 27.5015 49.5966 27.5544 50.1177 28.0525C50.7353 28.6425 51.3354 29.2492 51.9181 29.8725C52.4764 30.4722 52.5094 31.0817 52.0559 31.7635C51.7871 32.167 51.4756 32.5427 51.2192 32.9531C50.654 33.8617 51.091 34.9262 52.1276 35.1794C52.5508 35.2824 52.985 35.3339 53.4124 35.4243C54.1885 35.5885 54.591 36.0101 54.6255 36.7976C54.6627 37.677 54.6627 38.5592 54.6255 39.4413C54.591 40.2247 54.1912 40.6533 53.4124 40.8202C52.9657 40.9162 52.5067 40.9594 52.0559 41.0415C50.9724 41.2432 50.4816 42.3049 51.0372 43.2677C51.2688 43.6671 51.5459 44.0386 51.7871 44.4324C52.2241 45.1476 52.1745 45.7236 51.6079 46.3191C51.0413 46.9147 50.4486 47.5018 49.8517 48.0835C49.2548 48.6651 48.6661 48.6929 47.9824 48.2365C47.6957 48.0459 47.431 47.8191 47.1387 47.6368C46.2069 47.058 45.1358 47.5366 44.9166 48.6191C44.4755 50.7925 44.4755 50.7925 42.2974 50.7925C41.8149 50.7925 41.3324 50.8023 40.85 50.7925C40.0504 50.7703 39.5817 50.3751 39.4094 49.5737C39.3171 49.1437 39.2716 48.7054 39.1544 48.281C38.8635 47.1484 37.8241 46.7616 36.855 47.4184C36.5118 47.6507 36.1892 47.9123 35.8487 48.1488C35.1057 48.6678 34.5116 48.6331 33.8692 48.0097C33.2884 47.4531 32.7204 46.8794 32.1653 46.2885C31.5905 45.6819 31.5367 45.1086 31.9654 44.4004C32.2039 44.0052 32.4893 43.6379 32.7153 43.2357C33.253 42.2743 32.736 41.2168 31.6511 41.0387C31.2665 40.9761 30.8778 40.9399 30.4918 40.8842C29.622 40.7576 29.1574 40.2901 29.1216 39.4219C29.0857 38.5536 29.0885 37.7062 29.1216 36.8505C29.1519 36.0657 29.5434 35.6316 30.3098 35.4591C30.7344 35.3589 31.1673 35.2963 31.5905 35.1975C32.6699 34.9443 33.1068 33.8798 32.5072 32.9364C32.2315 32.5093 31.9062 32.1169 31.6318 31.6842C31.25 31.0872 31.2803 30.4778 31.7573 29.9602C32.3804 29.2812 33.0448 28.6397 33.7038 27.9941C33.8294 27.8701 33.9804 27.7752 34.1461 27.7161C34.3118 27.657 34.4882 27.6351 34.6632 27.6518ZM31.8469 38.1807C31.9473 38.2174 32.0494 38.249 32.1529 38.2753C35.3593 38.8792 36.5518 42.4037 35.0478 44.7037C34.9678 44.8261 34.8162 44.982 34.9871 45.1309C35.1843 45.295 35.3166 45.071 35.46 44.9917C38.0447 43.4611 40.974 44.6202 41.8232 47.5088C41.8728 47.6799 41.7818 47.993 42.0989 47.9749C42.3484 47.9624 42.2891 47.6883 42.3457 47.5324C43.2527 45.0042 45.8112 43.9245 48.2154 45.0543C48.3891 45.1364 48.5848 45.3744 48.7668 45.1935C49.0011 44.9583 48.6923 44.776 48.5958 44.6049C47.2173 42.1003 48.4828 39.1143 51.2302 38.3783C51.4439 38.3212 51.7306 38.363 51.8822 38.043C51.6548 37.9664 51.4687 37.9038 51.2702 37.8412C48.6041 37.0495 47.4103 34.0997 48.7654 31.6591C48.844 31.52 48.9336 31.3808 49.0163 31.2417C49.0797 31.1373 49.1197 31.0149 48.9984 30.9411C48.9591 30.9246 48.9169 30.9161 48.8743 30.9161C48.8317 30.9161 48.7895 30.9246 48.7502 30.9411C48.6234 30.9926 48.5117 31.0803 48.3891 31.1429C47.819 31.4596 47.1837 31.6378 46.5335 31.6633C45.8833 31.6888 45.2362 31.5609 44.6435 31.2899C44.0508 31.0188 43.5289 30.6119 43.1193 30.1017C42.7096 29.5914 42.4235 28.9917 42.2836 28.3503C42.2423 28.1694 42.3277 27.8564 42.0258 27.8772C41.7915 27.8939 41.8783 28.1764 41.8397 28.3434C41.3531 30.4903 39.772 31.8456 37.7428 31.8831C36.7953 31.8957 35.8692 31.5984 35.1029 31.0358C34.9858 30.9551 34.8452 30.7853 34.6894 30.9717C34.5722 31.1109 34.7087 31.225 34.7707 31.3405C34.8148 31.4212 34.8672 31.4977 34.9086 31.5784C36.3353 34.083 35.1567 37.0216 32.3983 37.8398C32.2274 37.8969 31.9985 37.8829 31.8469 38.1807Z" fill="white"/>
<path d="M31.8457 38.182C31.9973 37.8842 32.2262 37.9037 32.4109 37.8425C35.1679 37.0188 36.3479 34.0856 34.9212 31.5811C34.8743 31.5004 34.8219 31.4239 34.7833 31.3431C34.7213 31.2277 34.5848 31.1136 34.702 30.9744C34.8591 30.788 34.9997 30.9577 35.1155 31.0384C35.8818 31.6011 36.8079 31.8984 37.7554 31.8858C39.7859 31.8482 41.3657 30.4944 41.8523 28.346C41.8909 28.1791 41.8041 27.8966 42.0384 27.8799C42.3403 27.859 42.2549 28.1721 42.2962 28.353C42.4361 28.9944 42.7222 29.5941 43.1319 30.1043C43.5415 30.6146 44.0634 31.0214 44.6561 31.2925C45.2488 31.5636 45.8959 31.6915 46.5461 31.666C47.1963 31.6405 47.8316 31.4623 48.4017 31.1456C48.5244 31.0816 48.636 30.9953 48.7628 30.9438C48.8021 30.9273 48.8443 30.9188 48.8869 30.9188C48.9295 30.9188 48.9717 30.9273 49.011 30.9438C49.1323 31.0176 49.0923 31.14 49.0289 31.2444C48.9462 31.3835 48.8566 31.5226 48.778 31.6618C47.4146 34.0898 48.6126 37.0396 51.2745 37.8313C51.4689 37.8884 51.6591 37.9566 51.8865 38.0331C51.7349 38.3531 51.4482 38.3114 51.2345 38.3684C48.4871 39.1045 47.2258 42.0905 48.6002 44.595C48.6967 44.7718 49.0055 44.9485 48.7711 45.1836C48.585 45.3701 48.3893 45.1321 48.2197 45.0445C45.8156 43.9146 43.257 44.9944 42.35 47.5226C42.2935 47.6784 42.35 47.9525 42.1032 47.9651C41.782 47.9832 41.873 47.6701 41.8275 47.4989C40.9756 44.6104 38.049 43.4513 35.4643 44.9819C35.3265 45.0667 35.1886 45.2908 34.9915 45.121C34.8205 44.9819 34.9722 44.8163 35.0521 44.6938C36.5547 42.3938 35.3623 38.8693 32.1572 38.2655C32.0521 38.2429 31.9481 38.2151 31.8457 38.182ZM41.8854 43.1285C43.242 43.1225 44.5421 42.5801 45.507 41.6176C46.4719 40.6551 47.0246 39.3493 47.0466 37.9802C47.0522 37.2897 46.9227 36.6048 46.6654 35.9649C46.4081 35.325 46.0281 34.7427 45.5473 34.2514C45.0665 33.7602 44.4943 33.3696 43.8635 33.1021C43.2327 32.8346 42.5558 32.6956 41.8716 32.6928C41.1936 32.6941 40.5224 32.8307 39.8969 33.0949C39.2713 33.3591 38.7038 33.7456 38.2268 34.2322C37.7499 34.7187 37.3731 35.2957 37.1181 35.9299C36.863 36.5641 36.7348 37.2429 36.7408 37.9274C36.7338 38.6116 36.8621 39.2905 37.118 39.9241C37.374 40.5578 37.7525 41.1336 38.2315 41.6179C38.7106 42.1021 39.2804 42.4852 39.9078 42.7445C40.5352 43.0039 41.2075 43.1344 41.8854 43.1285Z" fill="#E8E9EE"/>
<path d="M41.8851 43.1293C41.2072 43.1353 40.5349 43.0047 39.9075 42.7454C39.2801 42.486 38.7103 42.103 38.2312 41.6187C37.7522 41.1344 37.3737 40.5586 37.1177 39.9249C36.8617 39.2913 36.7335 38.6125 36.7405 37.9282C36.7352 37.2442 36.864 36.566 37.1194 35.9324C37.3747 35.2989 37.7517 34.7226 38.2285 34.2366C38.7053 33.7507 39.2727 33.3647 39.8978 33.1008C40.523 32.837 41.1937 32.7005 41.8713 32.6992C42.5555 32.7019 43.2324 32.841 43.8632 33.1085C44.4939 33.376 45.0662 33.7666 45.547 34.2578C46.0278 34.7491 46.4078 35.3314 46.6651 35.9713C46.9224 36.6112 47.0519 37.2961 47.0463 37.9866C47.0229 39.3547 46.4695 40.6591 45.5048 41.6204C44.5401 42.5817 43.2407 43.1233 41.8851 43.1293ZM41.8851 40.3465C42.5234 40.3457 43.1353 40.0896 43.5867 39.6342C44.0382 39.1788 44.2923 38.5613 44.2934 37.9171C44.2866 37.2728 44.0299 36.6569 43.5784 36.2014C43.1269 35.7459 42.5165 35.4872 41.8782 35.4807C41.5616 35.4816 41.2483 35.5457 40.9563 35.6695C40.6644 35.7932 40.3996 35.974 40.1773 36.2016C39.9549 36.4291 39.7794 36.6988 39.6609 36.9952C39.5423 37.2915 39.483 37.6086 39.4865 37.9282C39.4819 38.2471 39.5407 38.5636 39.6594 38.8591C39.7782 39.1547 39.9545 39.4231 40.1779 39.6486C40.4013 39.8741 40.6673 40.0521 40.96 40.1719C41.2528 40.2918 41.5665 40.3512 41.8824 40.3465H41.8851Z" fill="white"/>
<path d="M41.8805 40.3455C41.5646 40.3502 41.2509 40.2909 40.9582 40.171C40.6654 40.0511 40.3994 39.8732 40.176 39.6477C39.9526 39.4222 39.7763 39.1537 39.6575 38.8582C39.5388 38.5627 39.48 38.2461 39.4846 37.9272C39.4817 37.6082 39.5413 37.2918 39.6599 36.9961C39.7786 36.7005 39.9539 36.4314 40.1759 36.2043C40.3979 35.9773 40.6622 35.7967 40.9535 35.6731C41.2449 35.5495 41.5576 35.4852 41.8736 35.4839C42.5119 35.4904 43.1223 35.7491 43.5738 36.2046C44.0252 36.6601 44.2819 37.276 44.2888 37.9203C44.2866 38.5638 44.032 39.1802 43.5806 39.6347C43.1293 40.0892 42.518 40.3448 41.8805 40.3455Z" fill="#E8E9EE"/>
</svg>
