<svg width="52" height="57" viewBox="0 0 52 57" fill="none" xmlns="http://www.w3.org/2000/svg">
<path d="M32.93 26.6973L21.779 30.3385L12.0778 34.6201L9.36373 35.3366C8.67251 35.9941 7.94776 36.66 7.16388 37.3343C6.30418 38.076 5.50348 38.7503 4.88809 39.2391C4.20543 39.7786 3.19398 40.79 2.67989 41.4304C1.91284 42.3913 1.30601 43.4111 1.04471 44.1951C0.581098 45.6111 0.808781 47.0439 1.70218 48.3673C2.84845 50.0529 5.13264 51.7723 7.79598 52.9439C9.15307 53.5424 11.4372 54.3093 13.1565 54.7391C16.0138 55.4641 21.543 56.2479 24.5856 56.366C25.2008 56.3913 26.0269 56.3913 26.0605 56.366C26.128 56.3237 26.6 55.422 27.148 54.301C29.0191 50.4828 30.3676 46.9006 31.1009 43.8411C31.5391 41.9869 31.8847 39.5173 32.1122 36.5927C32.1713 35.7751 32.1965 33.0358 32.1459 32.1086C32.07 30.5915 31.9351 29.361 31.7246 28.1557C31.6908 27.9786 31.6823 27.8185 31.6992 27.8101C31.7329 27.7848 31.834 27.7511 33.2079 27.3549L32.9299 26.6975V26.6973H32.93V26.6973ZM30.3846 28.1892C30.4857 28.1892 30.7553 30.7767 30.8227 32.412C30.8397 32.7575 30.8311 32.9851 30.8143 32.9851C30.747 32.9851 29.3899 32.1845 28.4208 31.5776C27.5779 31.0466 25.9765 29.9845 25.7237 29.7823C25.6392 29.7233 25.6476 29.7149 26.3389 29.4788C27.5103 29.0826 30.2919 28.1892 30.3846 28.1892ZM24.7037 30.0604C24.7796 30.0604 24.9733 30.1699 25.437 30.4565C27.1732 31.5438 29.5333 32.8587 30.5447 33.297C30.8565 33.4319 30.8901 33.3812 30.1738 33.8702C28.6398 34.9153 26.7264 35.9435 24.3833 36.9802C23.9703 37.1657 23.6248 37.3089 23.6164 37.3089C23.5996 37.3089 23.65 37.0983 23.7174 36.8454C24.2821 34.7465 24.6025 32.6226 24.6194 30.92C24.6278 30.0771 24.6278 30.0771 24.7037 30.052C24.6868 30.0604 24.6952 30.0604 24.7037 30.0604ZM23.5322 30.5071C23.5826 30.5576 23.549 32.4456 23.4815 32.9597C23.3298 34.1904 23.0938 35.3366 22.7062 36.6263C22.6135 36.9379 22.5291 37.1994 22.5124 37.2162C22.4785 37.2583 21.3238 36.1289 20.9445 35.6906C20.287 34.932 19.773 34.1734 19.3937 33.4317C19.1999 33.0524 18.8965 32.3108 18.9217 32.2855C19.0565 32.1928 23.4984 30.4734 23.5322 30.5071ZM18.0198 32.6732C18.0282 32.6732 18.0366 32.6732 18.0451 32.6816C18.0619 32.6984 18.1211 32.8333 18.1716 32.985C18.4412 33.7183 19.048 34.7972 19.5707 35.4883C20.1439 36.2469 20.8941 37.056 21.5176 37.587C21.72 37.7556 21.9053 37.9157 21.9305 37.941C21.9812 37.9916 21.9981 37.9831 20.6241 38.5057C19.0313 39.1126 17.2949 39.7194 15.3057 40.3599C14.8306 40.5131 14.3558 40.6677 13.8815 40.8236C13.8056 40.8489 13.8309 40.8067 14.05 40.4612C15.0361 38.9187 16.5364 35.8929 17.3793 33.752C17.5226 33.3811 17.6658 33.0103 17.6912 32.926C17.7249 32.808 17.767 32.7659 17.8765 32.7068C17.9355 32.6901 17.9946 32.6732 18.0198 32.6732ZM16.3343 33.3727C16.3595 33.3897 15.9296 34.2915 15.5082 35.1175C14.6906 36.7104 13.7972 38.2783 12.6003 40.1831C12.3981 40.5117 12.2043 40.8152 12.1789 40.8489C12.1368 40.908 12.1199 40.891 11.985 40.6298C11.6985 40.0651 11.4624 39.3401 11.336 38.6743C11.2095 38.0168 11.2349 36.8706 11.3782 36.1626C11.4877 35.6401 11.4793 35.6485 11.7322 35.5221C12.811 34.9742 16.3005 33.339 16.3343 33.3727ZM30.8734 33.9628V34.3168C30.8734 36.1964 30.6712 38.7755 30.376 40.6551C30.3255 40.9838 30.2832 41.2534 30.2749 41.262C30.2749 41.262 30.0305 41.1946 29.7439 41.1102C28.4797 40.714 27.1058 40.1325 25.8668 39.4499C25.0491 39.0031 23.8608 38.2697 23.8945 38.236C23.9028 38.2277 24.2569 38.0422 24.6698 37.823C26.322 36.9634 27.9065 36.0362 29.2803 35.1175C29.7945 34.7719 30.5698 34.2157 30.7386 34.064L30.8734 33.9628ZM9.97056 36.4575C10.0043 36.4575 9.99582 36.525 9.94526 36.8284C9.91152 37.0476 9.86943 37.4522 9.85268 37.7302C9.78509 38.9608 9.98751 39.8712 10.5943 41.1185C10.7629 41.4641 10.8979 41.7507 10.8893 41.759C10.8303 41.8097 5.25068 43.4449 3.49742 43.9253C2.97489 44.0685 2.51983 44.195 2.48594 44.2033C2.42706 44.2202 2.41858 44.2118 2.44385 44.0684C2.63768 42.8295 3.58172 41.2112 4.89652 39.8457C5.77314 38.9355 6.47274 38.4045 7.66958 37.7217C8.52929 37.233 9.85256 36.4998 9.95369 36.466C9.95377 36.4575 9.96216 36.4575 9.97056 36.4575ZM23.1191 38.8091C23.1275 38.8007 23.3298 38.9104 23.5742 39.0536C25.378 40.0988 27.8896 41.0681 30.0304 41.5653L30.2243 41.6075L29.9546 41.759C28.8336 42.3828 25.1503 43.9168 21.3829 45.3244C20.8349 45.5266 20.2956 45.729 20.1943 45.7711C20.0931 45.8132 20.0004 45.8385 20.0004 45.8301C20.0004 45.8216 20.1522 45.5266 20.3459 45.1642C21.3995 43.192 22.4616 40.7899 23.001 39.121C23.0686 38.9608 23.1106 38.8176 23.1191 38.8091ZM21.779 39.2474C21.7876 39.256 21.72 39.4329 21.6357 39.6351C20.9025 41.4136 19.9415 43.3523 18.711 45.5268C18.3992 46.0831 18.1378 46.5298 18.1293 46.5298C18.121 46.5298 17.8681 46.378 17.5647 46.1926C15.7777 45.0969 14.1932 43.7483 13.1566 42.4419L13.0048 42.2565L13.7717 42.0457C16.5195 41.2957 18.8541 40.4865 21.1721 39.492C21.5008 39.3571 21.7706 39.2474 21.779 39.2474ZM30.1064 42.1553C30.1148 42.3492 29.6849 44.0855 29.3309 45.3412C29.0359 46.3948 28.783 47.2209 28.3195 48.6789C28.1172 49.3196 27.9404 49.8505 27.9318 49.8505C27.9234 49.8505 27.8728 49.8421 27.8223 49.8253C25.319 49.37 23.077 48.7379 20.9699 47.8951C20.3798 47.6591 19.537 47.2797 19.4864 47.2377C19.4696 47.2206 19.9754 46.9848 20.6159 46.7066C24.4509 45.0293 28.4291 43.1245 29.7945 42.307C29.9546 42.2058 30.0811 42.1553 30.1064 42.1553ZM10.8809 42.8128C10.8978 42.8296 9.82734 44.372 8.32698 46.4707C7.80445 47.204 7.19762 48.0637 6.97009 48.384C6.74248 48.7043 6.39695 49.21 6.20308 49.5134L5.84893 50.0613L5.46962 49.741C5.02288 49.3701 4.24756 48.5779 3.90199 48.1396C3.17708 47.2378 2.68832 46.2854 2.49445 45.4173C2.40172 45.0127 2.40171 44.8103 2.4859 44.7851C2.6123 44.7514 4.86275 44.2204 6.97001 43.7314C8.14159 43.4618 9.49848 43.1416 9.98735 43.0236C10.4763 42.9054 10.8725 42.8128 10.8809 42.8128ZM11.9597 43.2258L12.2293 43.5292C13.4432 44.8862 14.6822 45.8894 16.1824 46.7657C16.4522 46.9175 16.6544 47.0523 16.6375 47.0609C16.5786 47.103 11.4287 48.9318 9.04342 49.7578C7.70336 50.2298 6.59914 50.6091 6.59082 50.6091C6.58243 50.6091 6.50652 50.5586 6.4221 50.4995L6.27048 50.3899L6.51488 50.036C7.30711 48.8897 8.30184 47.6339 10.4679 45.0211L11.9597 43.2258ZM18.6858 48.0384C18.6941 48.03 19.0649 48.1648 19.52 48.3335C20.6159 48.7465 21.4839 49.0077 22.6471 49.3027C24.08 49.6652 26.1534 50.0192 27.3756 50.1203C27.561 50.1371 27.6622 50.1541 27.6284 50.1794C27.5693 50.2131 26.3305 50.6261 25.4202 50.9127C23.9703 51.3677 19.5454 52.6741 15.938 53.7109C15.2722 53.9047 14.699 54.0649 14.6653 54.0733C14.5811 54.0902 14.3029 54.0142 14.3029 53.9805C14.3029 53.9638 14.5051 53.7025 14.7496 53.4159C15.9632 51.9662 17.1686 50.3479 18.1716 48.8139C18.4497 48.3924 18.6858 48.0468 18.6858 48.0384ZM17.2022 48.0806C17.2106 48.089 16.6123 49.0498 15.5672 50.7018C15.1204 51.4014 14.6231 52.1936 14.4461 52.4718C14.2775 52.7415 14.0247 53.163 13.8815 53.399L13.637 53.8289L13.5106 53.7951C13.2071 53.7108 11.0747 52.9606 10.51 52.7331C9.81035 52.4549 9.08552 52.1179 8.54604 51.8313C7.87185 51.4688 7.02905 50.9293 7.09641 50.9126C7.11324 50.9042 8.26798 50.5922 9.65861 50.213C13.3504 49.2099 15.3984 48.6284 16.7387 48.207C16.9832 48.1311 17.1938 48.0721 17.2022 48.0806ZM27.6958 50.5416H27.7042C27.7379 50.626 26.3726 54.4188 25.8751 55.6156C25.7657 55.8853 25.7237 55.9529 25.6646 55.9443C25.5213 55.936 23.5406 55.6578 22.3352 55.4808C20.2366 55.1605 16.7134 54.5452 15.8285 54.343L15.6262 54.3009L16.8819 54.0141C19.5791 53.4073 20.8771 53.0786 22.1919 52.674C23.8524 52.1683 25.496 51.5362 27.1564 50.7608C27.4176 50.6428 27.6368 50.5501 27.6958 50.5416Z" fill="white"/>
<path d="M21.4306 0.703557C21.2452 0.67841 18.2529 1.75725 16.3229 2.541C13.7184 3.60313 11.6957 4.61461 10.4482 5.49099C9.98468 5.81984 9.40299 6.40133 9.31041 6.62886C9.27671 6.71317 9.25977 6.8143 9.25977 6.91543L10.3892 7.98587L13.0779 8.84558L19.4752 9.99189L26.7911 11.2478L26.867 10.6156C26.8418 10.6156 26.8248 10.6072 26.7998 10.6072L25.8387 10.4555L25.6449 10.1099C24.6503 8.35674 23.5546 6.18216 22.9141 4.71559C22.4169 3.57771 21.9448 2.26299 21.6835 1.31894C21.5402 0.745805 21.5234 0.712107 21.4308 0.703712V0.703518H21.4306V0.703557ZM21.2956 1.13354H21.3042C21.3125 1.14186 21.3463 1.37802 21.38 1.656C21.5232 2.83616 21.7847 3.97384 22.1976 5.20446C22.5094 6.13163 22.5094 6.08111 22.147 5.97146C21.2873 5.73554 17.4355 5.06967 14.6457 4.68197C14.1989 4.62293 13.8196 4.56396 13.8196 4.55557C13.7859 4.52187 15.834 3.45135 16.7359 3.03003C17.8906 2.49891 21.0597 1.17564 21.2956 1.13354ZM13.1705 4.90949L13.4994 5.01894C15.2861 5.62589 19.7784 6.48564 22.2565 6.6879C22.5346 6.7132 22.7707 6.73855 22.779 6.73855C22.7874 6.74694 22.5515 6.87338 22.248 7.0166C21.0513 7.61504 19.7364 8.34835 18.8261 8.91309C18.5565 9.08158 18.3119 9.21653 18.2783 9.21653C18.2445 9.21653 18.0676 9.18279 17.8822 9.15749L17.545 9.10684L16.7023 8.2808C15.2188 6.8396 14.0557 5.72707 13.6089 5.30555L13.1705 4.90949ZM12.8335 5.17072L14.0219 6.6542C14.6708 7.47178 15.3283 8.27244 15.4717 8.44936C15.6148 8.62648 15.7329 8.76982 15.7245 8.77822C15.6908 8.80348 14.0052 8.47471 13.1116 8.27252C12.1929 8.06174 11.8137 7.96061 11.249 7.78368L10.7853 7.63191V7.51383C10.7937 6.94909 11.5103 6.10629 12.7239 5.24667L12.8335 5.17072ZM22.9308 7.1936C22.9646 7.1936 23.0066 7.26943 23.1078 7.497C23.3943 8.1291 24.2879 9.83175 24.5069 10.1604C24.5745 10.2701 24.6923 10.2785 23.504 10.0846C20.6468 9.62094 19.728 9.46939 19.728 9.45253C19.728 9.44413 19.8123 9.38509 19.9219 9.32605C20.8069 8.8373 21.7003 8.21352 22.4926 7.54764C22.6865 7.38747 22.8635 7.23577 22.8971 7.21043C22.9055 7.1936 22.9224 7.18521 22.9308 7.1936Z" fill="white"/>
<path d="M9.37155 6.51074C9.37155 6.51074 9.18623 6.80586 9.36319 7.24417C9.47288 7.51379 9.7931 7.84245 10.1555 8.17966C10.1555 8.17966 13.9061 11.8376 14.3613 12.3603C16.4347 14.7539 17.3366 17.1139 17.4209 20.3674C17.4714 22.4576 17.0752 24.2951 16.0891 26.4275C14.336 30.2541 10.6358 34.4768 4.92969 39.1631L5.76424 38.885C6.30364 38.4803 7.03695 38.0506 8.75632 37.1065C12.7261 34.9318 17.1933 32.9343 22.6719 30.8778C30.5608 27.9108 43.5325 24.4382 50.9157 23.3089L51.6829 23.1908L51.5648 23.0054C50.8906 21.9602 50.4269 21.3113 49.8706 20.6202C48.2524 18.6141 46.2887 16.9875 43.8864 15.6389C40.5824 13.7931 36.309 12.3519 30.898 11.2814C29.8782 11.079 27.6362 10.6914 25.8156 10.4132C21.9553 9.81496 19.4605 9.40188 16.7128 8.92988C15.7268 8.76123 14.2516 8.50844 13.2739 8.29778C12.7682 8.1881 11.799 7.96057 11.0405 7.6993C10.4336 7.46318 9.55698 7.22718 9.37155 6.51074ZM11.5462 8.61797C11.5546 8.60965 11.6894 8.66006 11.8665 8.7191C12.1868 8.82855 12.5997 8.95502 13.0887 9.08997C13.4587 9.19172 13.8295 9.29005 14.2013 9.38493C14.707 9.51129 15.1283 9.62933 15.1367 9.62933C15.1958 9.68837 16.0471 12.4106 16.3337 13.4558C16.4431 13.852 16.5276 14.1891 16.5192 14.1891C16.5105 14.1976 16.4179 14.0542 16.3084 13.8604C15.3222 12.1241 13.7629 10.3626 11.9592 8.94651C11.7233 8.7781 11.5462 8.62636 11.5462 8.61797ZM15.6931 9.76424C15.7352 9.76424 15.9207 9.78954 16.1481 9.84007C17.581 10.1603 20.1518 10.6492 21.7953 10.9274C22.0734 10.9695 22.2926 11.0202 22.2926 11.0369C22.2926 11.0539 22.1914 11.1127 22.0649 11.1802C21.7869 11.3235 20.6658 11.9893 20.2951 12.2422C19.3594 12.8659 18.5167 13.5401 17.9097 14.147C17.6653 14.3915 17.4545 14.5937 17.4545 14.5937C17.4545 14.5937 17.4041 14.4505 17.3618 14.2734C17.0585 13.1018 16.4263 11.3655 15.8532 10.1434C15.7604 9.94964 15.6845 9.7726 15.6845 9.7558C15.6845 9.77263 15.6845 9.76424 15.6931 9.76424ZM22.9921 11.1549C23.0427 11.1717 23.127 11.4583 23.2955 12.0904C23.6074 13.3127 23.7507 14.6781 23.7002 15.9508C23.6832 16.3048 23.6664 16.6334 23.6495 16.6757L23.6243 16.7599L23.186 16.6166C22.2841 16.3301 20.8176 15.9001 19.5618 15.5462C18.8453 15.3523 18.2639 15.1753 18.2639 15.1585C18.2639 15.1079 19.309 14.0628 19.7557 13.6667C20.6068 12.9164 22.9162 11.1296 22.9921 11.1549ZM23.5737 11.2391C23.599 11.214 27.0632 11.8123 28.6393 12.1157C29.811 12.3433 31.5135 12.6973 31.6146 12.7395C31.6651 12.7563 31.4881 12.8574 30.9233 13.1103C28.6983 14.1134 27.0462 15.0151 25.4028 16.1109C24.9729 16.3975 24.6105 16.6334 24.6021 16.6334C24.5937 16.6334 24.5852 16.3891 24.5852 16.094C24.5852 14.4927 24.2649 12.8744 23.6748 11.5089C23.6158 11.3741 23.5653 11.2477 23.5737 11.2391ZM32.5332 13.0092C32.5586 13.0345 32.4489 13.7173 32.3478 14.1218C32.0444 15.3776 31.2269 17.2405 30.224 18.9935C30.0468 19.3054 29.8867 19.5582 29.8697 19.5666C29.8531 19.575 29.6254 19.4485 29.3641 19.2969C28.3864 18.7237 27.2739 18.1843 26.0601 17.6785C25.7231 17.5353 25.428 17.4172 25.4196 17.4005C25.3605 17.3499 28.0745 15.5546 29.5074 14.6949C30.6453 14.0038 32.4995 12.9754 32.5332 13.0092ZM33.1738 13.1103C33.2497 13.1103 34.7837 13.5318 35.5843 13.7678C37.565 14.3578 39.8407 15.1922 41.3241 15.8665L41.9393 16.1447L41.5096 16.2458C37.8854 17.0801 34.7837 18.0411 31.7915 19.2548C31.547 19.3559 31.3279 19.4402 31.3112 19.4402C31.2942 19.4402 31.3786 19.2464 31.4881 19.0103C32.39 17.0971 32.9716 15.0995 33.1147 13.3968C33.1233 13.2367 33.1484 13.1103 33.1738 13.1103ZM17.9013 16.6166C17.9266 16.5913 19.0982 16.8695 19.7303 17.0464C20.6912 17.3162 22.7308 17.9988 22.7308 18.0494C22.7308 18.0578 22.5033 18.2517 22.2337 18.4878C21.1295 19.4065 20.0675 20.3756 18.7947 21.6063C18.4154 21.9688 18.0952 22.2638 18.0784 22.2638C18.0614 22.2638 18.0532 22.2131 18.0614 22.1457C18.2553 20.7297 18.2133 18.9091 17.9435 17.0633C17.9181 16.8272 17.8929 16.625 17.9013 16.6166ZM42.5211 16.642C42.5378 16.6587 41.9816 17.5353 41.6276 18.0325C41.122 18.7574 40.3801 19.7184 38.7028 21.8255C37.818 22.938 36.8233 24.1939 36.4947 24.6153C36.1574 25.0367 35.8794 25.3906 35.8708 25.3906C35.8624 25.3906 35.753 25.239 35.6349 25.0536C34.6909 23.6376 33.5614 22.3986 32.2213 21.286C31.9684 21.0753 31.6904 20.8477 31.5977 20.7803C31.505 20.7129 31.429 20.6454 31.429 20.637C31.429 20.6118 32.8618 19.9964 33.9492 19.5582C35.8541 18.7827 38.4498 17.8556 40.397 17.2571C41.4169 16.9369 42.5042 16.625 42.5211 16.642ZM43.1701 16.8104C43.2037 16.8021 43.4061 16.9032 43.6505 17.0464C45.6987 18.2179 47.7045 19.7267 49.2892 21.2776C49.7359 21.7159 50.84 22.8622 50.8231 22.8706C50.8231 22.8706 50.4354 22.9043 49.9803 22.938C46.4319 23.2078 41.889 23.9578 37.523 25.0113C37.228 25.0787 36.9668 25.1377 36.9498 25.1377C36.9331 25.1377 37.2617 24.8091 37.6748 24.413C40.237 21.9434 41.4087 20.3842 42.7908 17.6027C42.9846 17.1898 43.1533 16.8358 43.1701 16.8104C43.1617 16.8104 43.1617 16.8104 43.1701 16.8104ZM24.3997 18.7323C24.5178 18.7574 25.6135 19.2717 26.4394 19.6846C27.198 20.0638 28.3359 20.6708 28.3949 20.7213C28.4033 20.7297 27.9986 20.9404 27.5015 21.1849C25.9169 21.9771 24.5599 22.7272 23.1438 23.5869C22.7393 23.8314 22.4022 24.0338 22.3938 24.0338C22.36 24.0338 22.3684 23.9999 22.596 23.5869C23.3546 22.2048 23.9614 20.5528 24.3071 18.9428C24.3407 18.8165 24.3744 18.7323 24.3997 18.7323ZM23.3039 18.9345C23.3293 18.9598 23.0427 19.9964 22.8658 20.5612C22.5201 21.6316 21.9386 22.9717 21.3739 23.9831C21.2389 24.219 21.0367 24.5646 20.9271 24.7585L20.7165 25.0956L20.2445 24.6406C19.6967 24.1095 19.2498 23.7808 18.6768 23.4858C18.4491 23.3679 18.2722 23.2666 18.2722 23.2499C18.2722 23.1824 19.7135 21.876 20.8176 20.932C21.6098 20.2493 23.2787 18.9092 23.3039 18.9345ZM30.0048 21.6906L30.4178 21.9603C31.3616 22.5756 32.4741 23.3931 33.3256 24.1095C33.8059 24.5056 34.733 25.3402 34.9186 25.5424L35.0196 25.6521L34.337 25.8459C30.4767 26.9162 27.493 27.8687 24.012 29.1499C23.6243 29.2931 23.2955 29.4111 23.2702 29.4111C23.2198 29.4111 23.1775 29.4532 24.0457 28.6525C26.2709 26.6045 28.2431 24.3455 29.7097 22.1457L30.0048 21.6906ZM28.2432 22.1289C28.26 22.1457 27.1053 23.7724 26.4141 24.6911C25.5881 25.7869 24.1215 27.6242 23.1101 28.821C22.6888 29.3184 22.3264 29.7313 22.3095 29.7398C22.2841 29.7482 22.2757 29.6218 22.2757 29.4279C22.2757 28.408 22.0145 27.3207 21.5593 26.3937C21.3654 26.006 21.3317 25.9132 21.374 25.8711C21.5341 25.7278 23.9867 24.3286 25.5375 23.4943C26.5827 22.938 28.2177 22.112 28.2432 22.1289ZM17.5894 24.7418C17.6147 24.7418 17.8086 24.8428 18.0278 24.9609C18.5672 25.2559 19.0476 25.5846 19.4775 25.9386C19.4942 25.9554 19.2752 26.1325 18.9886 26.3431C18.1879 26.9162 16.9742 27.835 16.2663 28.3997C15.5244 28.9897 15.4993 29.0066 15.5835 28.8802C16.1398 28.0289 16.4179 27.5484 16.713 26.9332C16.9742 26.3854 17.2354 25.7364 17.4209 25.1716C17.4883 24.9272 17.5726 24.7418 17.5894 24.7418ZM20.4299 26.9668C20.4719 26.9585 20.5227 27.0343 20.7501 27.3715C21.2306 28.0878 21.6014 29.0488 21.6943 29.8242L21.711 29.9928L20.5564 30.4395C18.4913 31.2402 16.5865 32.0325 15.2968 32.6224C14.9345 32.791 14.3023 33.0944 13.8894 33.2968C13.4764 33.5074 13.1392 33.6676 13.1392 33.6592C13.1392 33.6508 13.4004 33.4569 13.7207 33.2208C16.241 31.3919 18.4239 29.3858 20.059 27.3799C20.2361 27.1691 20.3963 26.9753 20.413 26.9669L20.4299 26.9668ZM19.1235 27.2872C19.1573 27.3209 18.1964 28.4081 17.539 29.0739C15.9123 30.7345 14.3024 32.0325 12.3048 33.2968C12.0519 33.4569 11.8244 33.6001 11.7991 33.6171C11.74 33.6508 11.8159 33.5664 12.6925 32.614C13.2488 32.0156 13.6702 31.5099 14.1506 30.8862C14.4709 30.4733 14.5299 30.4143 14.9936 30.0854C16.2326 29.192 19.0898 27.2534 19.1235 27.2872Z" fill="white"/>
</svg>
