<svg width="57" height="57" viewBox="0 0 57 57" fill="none" xmlns="http://www.w3.org/2000/svg">
<path d="M22.2251 1.63956C23.2595 2.66419 23.2595 4.32543 22.2251 5.35008C19.4049 8.14357 17.5168 13.7998 16.9143 19.877C16.6212 22.8336 16.6517 25.7163 16.9666 28.1419C17.0559 28.8304 17.1654 29.4595 17.2897 30.0281L34.8666 12.6179C35.901 11.5932 37.5783 11.5932 38.6125 12.6179C39.6471 13.6425 39.6471 15.3038 38.6125 16.3284L18.1716 36.5757C17.6142 37.1276 16.8377 37.4053 16.053 37.3327C15.2682 37.2604 14.5567 36.8456 14.1119 36.2014C12.8035 34.3056 12.0744 31.6017 11.7121 28.8112C11.3396 25.9419 11.3153 22.6588 11.642 19.3642C11.7224 18.5527 11.8254 17.729 11.9523 16.9009C10.7016 18.6327 9.5585 20.4336 8.61856 22.2714C6.93827 25.5566 6.00565 28.7774 6.14553 31.8021C6.28174 34.7478 7.44167 37.7203 10.3558 40.6067C11.0582 41.3024 11.3086 42.3287 11.0044 43.2655L9.62468 47.5143L13.9139 46.1473C14.8595 45.8456 15.8959 46.0937 16.5984 46.7894C19.72 49.8816 22.8162 51.1102 25.7856 51.285C28.8262 51.464 32.0107 50.5523 35.2506 48.874C37.1554 47.8876 39.0118 46.6734 40.794 45.3427C39.8715 45.491 38.9524 45.6095 38.0468 45.6997C34.7391 46.0281 31.438 45.9964 28.531 45.6021C25.69 45.2165 22.9532 44.4486 20.9907 43.1037C20.3447 42.661 19.9303 41.9572 19.8596 41.1823C19.7889 40.4073 20.0692 39.6411 20.6247 39.0909L41.1088 18.8009C42.1434 17.7763 43.8203 17.7763 44.8549 18.8009C45.8895 19.8256 45.8895 21.4868 44.8549 22.5115L27.1743 40.0245C27.7977 40.1715 28.4904 40.3001 29.2502 40.403C31.6896 40.7343 34.5678 40.7713 37.5183 40.4781C43.5617 39.8776 49.2257 37.9677 52.1343 35.0907L52.1389 35.086C53.1735 34.0614 54.8507 34.0614 55.8849 35.086C56.9195 36.1108 56.9195 37.7718 55.8849 38.7967C55.6514 39.0279 55.4104 39.2675 55.162 39.5142C50.98 43.669 44.7153 49.8929 37.7055 53.524C33.9528 55.4679 29.7929 56.7776 25.4712 56.5231C21.52 56.2905 17.657 54.7627 14.0511 51.6159L6.33407 54.0759C5.38851 54.3772 4.35218 54.1294 3.64973 53.4337C2.94729 52.738 2.69682 51.7114 3.00096 50.775L5.48532 43.1241C2.45905 39.6753 1.03217 35.9092 0.853353 32.0422C0.657346 27.8033 1.9687 23.6616 3.89271 19.8999C7.71345 12.4297 14.337 5.74244 18.4758 1.64282L18.4791 1.63957C19.5135 0.614937 21.1907 0.614935 22.2251 1.63956Z" fill="white"/>
</svg>
