<svg width="70" height="71" viewBox="0 0 70 71" fill="none" xmlns="http://www.w3.org/2000/svg">
<path d="M10.1788 14.7379V4.11438C10.1788 3.00981 11.0742 2.11438 12.1788 2.11438H65.306C66.4106 2.11438 67.306 3.00981 67.306 4.11438V38.6029C67.306 39.7075 66.4106 40.6029 65.306 40.6029H46.2506M31.3887 40.6029V22.8967C31.3887 21.7921 30.4932 20.8967 29.3887 20.8967H4.2832C3.17863 20.8967 2.2832 21.7921 2.2832 22.8967V66.7766C2.2832 67.8812 3.17863 68.7766 4.2832 68.7766H29.3887C30.4932 68.7766 31.3887 67.8812 31.3887 66.7766V47.5309M31.3887 40.6029H46.2506M31.3887 40.6029V47.5309M46.2506 40.6029V46.6071M59.5648 50.3021C55.3334 48.4546 43.7743 45.3139 31.3887 47.5309M12.1802 61.4614H20.8413M30.5129 14.7379C32.4376 14.514 36.5468 15.4321 37.5862 20.8967M31.3887 8.06124C35.283 8.44403 43.1293 11.3629 43.3602 19.9758" stroke="black" stroke-width="4" stroke-linecap="round"/>
</svg>
