<svg width="50" height="52" viewBox="0 0 50 52" fill="none" xmlns="http://www.w3.org/2000/svg">
<path d="M45.9136 39.7981V27.5894C45.9136 24.1416 43.4832 21.372 40.0353 21.372H27.2614V12.0459V11.9894C29.4658 11.0851 30.9918 8.93725 30.9918 6.45029C30.9918 3.17203 28.3353 0.458984 25.0005 0.458984C21.6658 0.458984 19.0092 3.17203 19.0092 6.45029C19.0092 8.93725 20.5918 11.0851 22.7397 11.9894V12.0459V21.372H9.96576C6.51793 21.372 4.0875 24.1981 4.0875 27.5894V39.7981C1.82663 40.7025 0.1875 42.8503 0.1875 45.3372C0.1875 48.6155 2.7875 51.3285 6.06576 51.3285C9.34402 51.3285 12.1701 48.6155 12.1701 45.3372C12.1701 42.8503 10.2484 40.7025 8.55272 39.7981V27.5894C8.55272 26.6285 9.00489 25.8938 9.90924 25.8938H22.7397V39.7981C20.4788 40.7025 19.0092 42.8503 19.0092 45.3372C19.0092 48.6155 21.6658 51.3285 25.0005 51.3285C28.3353 51.3285 30.9918 48.6155 30.9918 45.3372C30.9918 42.8503 29.5223 40.7025 27.2614 39.7981V25.8938H40.0353C40.9962 25.8938 41.3918 26.6851 41.3918 27.5894V39.7981C39.6962 40.7025 37.831 42.8503 37.831 45.3372C37.831 48.6155 40.6005 51.3285 43.9353 51.3285C47.2701 51.3285 49.8136 48.6155 49.8136 45.3372C49.8136 42.8503 48.1745 40.7025 45.9136 39.7981ZM25.0005 3.85029C26.4136 3.85029 27.6005 5.03725 27.6005 6.45029C27.6005 7.86333 26.4136 9.05029 25.0005 9.05029C23.5875 9.05029 22.4005 7.86333 22.4005 6.45029C22.4005 5.03725 23.5875 3.85029 25.0005 3.85029ZM6.00924 47.9372C4.5962 47.9372 3.40924 46.7503 3.40924 45.3372C3.40924 43.9242 4.5962 42.7372 6.00924 42.7372C7.42228 42.7372 8.60924 43.9242 8.60924 45.3372C8.60924 46.7503 7.42228 47.9372 6.00924 47.9372ZM25.0005 47.9372C23.5875 47.9372 22.4005 46.7503 22.4005 45.3372C22.4005 43.9242 23.5875 42.7372 25.0005 42.7372C26.4136 42.7372 27.6005 43.9242 27.6005 45.3372C27.6005 46.7503 26.4136 47.9372 25.0005 47.9372ZM43.9918 47.9372C42.5788 47.9372 41.3918 46.7503 41.3918 45.3372C41.3918 43.9242 42.5788 42.7372 43.9918 42.7372C45.4049 42.7372 46.5918 43.9242 46.5918 45.3372C46.5918 46.7503 45.4049 47.9372 43.9918 47.9372Z" fill="black"/>
</svg>
