<svg width="83" height="86" viewBox="0 0 83 86" fill="none" xmlns="http://www.w3.org/2000/svg">
<path d="M2.60352 83.3731H7.72883M81.0263 83.3731H76.3699M76.3699 83.3731V41.4193C76.3699 39.8448 75.0935 38.5684 73.519 38.5684H66.9672C65.3927 38.5684 64.1163 39.8448 64.1163 41.4193V83.3731M76.3699 83.3731H64.1163M64.1163 83.3731H57.4537M57.4537 83.3731V50.0169C57.4537 48.4424 56.1773 47.166 54.6028 47.166H48.2049C46.6304 47.166 45.354 48.4424 45.354 50.0169V83.3731M57.4537 83.3731H45.354M45.354 83.3731H38.3925M38.3925 83.3731V56.9039C38.3925 55.3294 37.1161 54.053 35.5416 54.053H29.6409C28.0664 54.053 26.79 55.3294 26.79 56.9039V83.3731M38.3925 83.3731H26.79M26.79 83.3731H19.4971M19.4971 83.3731V65.3405C19.4971 63.766 18.2207 62.4896 16.6462 62.4896H10.5797C9.00522 62.4896 7.72883 63.766 7.72883 65.3405V83.3731M19.4971 83.3731H7.72883M7.72883 48.8878C19.0551 50.0356 47.2104 45.3754 69.2219 17.5519M69.2219 17.5519H56.5948M69.2219 17.5519V30.8302M17.1609 29.74C16.518 30.0884 15.8977 30.3616 15.3019 30.567M17.1609 29.74C18.3821 29.0781 19.516 28.5709 20.5654 28.1931M17.1609 29.74L12.9224 18.0845M15.3019 30.567C6.31107 33.6657 2.92258 21.2916 12.063 18.3701C12.3574 18.276 12.6438 18.1807 12.9224 18.0845M15.3019 30.567L18.8097 38.7708C19.2094 39.7056 20.2767 40.1573 21.226 39.7933V39.7933C22.0834 39.4647 22.5809 38.5677 22.4058 37.6663L20.5654 28.1931M20.5654 28.1931C26.6281 26.0102 31.6901 26.5998 32.6274 28.1931L30.3786 22.4396L26.9696 13.7179L24.5307 7.47814C24.5307 9.29069 21.8625 14.9938 12.9224 18.0845M33.2543 9.23444L37.5011 2.47655M36.9508 15.2648L45.354 11.8859M38.3925 22.4396L45.9825 24.898" stroke="black" stroke-width="3.8012" stroke-linecap="round"/>
</svg>
